solid OpenSCAD_Model
  facet normal -0.951057 0.309014 0
    outer loop
      vertex 18.3459 123.309 1
      vertex 29.8395 158.683 2
      vertex 29.8395 158.683 1
    endloop
  endfacet
  facet normal -0.951057 0.309014 0
    outer loop
      vertex 29.8395 158.683 2
      vertex 18.3459 123.309 1
      vertex 18.3459 123.309 2
    endloop
  endfacet
  facet normal 0 0 1
    outer loop
      vertex 29.3797 158.853 1
      vertex 28.8946 159.011 1
      vertex 29.3735 158.834 1
    endloop
  endfacet
  facet normal 0 0 1
    outer loop
      vertex 17.8671 123.486 1
      vertex 29.8395 158.683 1
      vertex 29.3735 158.834 1
    endloop
  endfacet
  facet normal 0 0 1
    outer loop
      vertex 17.4011 123.637 1
      vertex 29.3735 158.834 1
      vertex 28.8946 159.011 1
    endloop
  endfacet
  facet normal 0 0 1
    outer loop
      vertex 29.8395 158.683 1
      vertex 17.8671 123.486 1
      vertex 18.3459 123.309 1
    endloop
  endfacet
  facet normal 0 0 1
    outer loop
      vertex 29.3735 158.834 1
      vertex 17.4011 123.637 1
      vertex 17.8671 123.486 1
    endloop
  endfacet
  facet normal 0 0 1
    outer loop
      vertex 18.3459 123.309 1
      vertex 17.8671 123.486 1
      vertex 17.8609 123.467 1
    endloop
  endfacet
  facet normal 0.951058 -0.309012 0
    outer loop
      vertex 17.4011 123.637 2
      vertex 28.8946 159.011 1
      vertex 28.8946 159.011 2
    endloop
  endfacet
  facet normal 0.951058 -0.309012 0
    outer loop
      vertex 28.8946 159.011 1
      vertex 17.4011 123.637 2
      vertex 17.4011 123.637 1
    endloop
  endfacet
  facet normal 0.309751 0.950818 -0
    outer loop
      vertex 18.3459 123.309 1
      vertex 17.8609 123.467 2
      vertex 18.3459 123.309 2
    endloop
  endfacet
  facet normal 0.309751 0.950818 0
    outer loop
      vertex 17.8609 123.467 2
      vertex 18.3459 123.309 1
      vertex 17.8609 123.467 1
    endloop
  endfacet
  facet normal -0.309693 -0.950837 0
    outer loop
      vertex 28.8946 159.011 1
      vertex 29.3797 158.853 2
      vertex 28.8946 159.011 2
    endloop
  endfacet
  facet normal -0.309693 -0.950837 -0
    outer loop
      vertex 29.3797 158.853 2
      vertex 28.8946 159.011 1
      vertex 29.3797 158.853 1
    endloop
  endfacet
  facet normal -0.951058 0.309013 0
    outer loop
      vertex 24.7257 82.1492 1
      vertex 36.2192 117.523 2
      vertex 36.2192 117.523 1
    endloop
  endfacet
  facet normal -0.951058 0.309013 0
    outer loop
      vertex 36.2192 117.523 2
      vertex 24.7257 82.1492 1
      vertex 24.7257 82.1492 2
    endloop
  endfacet
  facet normal 0 0 1
    outer loop
      vertex 35.7594 117.693 1
      vertex 35.2743 117.851 1
      vertex 35.7532 117.674 1
    endloop
  endfacet
  facet normal 0 0 1
    outer loop
      vertex 24.2468 82.3259 1
      vertex 36.2192 117.523 1
      vertex 35.7532 117.674 1
    endloop
  endfacet
  facet normal 0 0 1
    outer loop
      vertex 23.7808 82.4773 1
      vertex 35.7532 117.674 1
      vertex 35.2743 117.851 1
    endloop
  endfacet
  facet normal 0 0 1
    outer loop
      vertex 36.2192 117.523 1
      vertex 24.2468 82.3259 1
      vertex 24.7257 82.1492 1
    endloop
  endfacet
  facet normal 0 0 1
    outer loop
      vertex 35.7532 117.674 1
      vertex 23.7808 82.4773 1
      vertex 24.2468 82.3259 1
    endloop
  endfacet
  facet normal 0 0 1
    outer loop
      vertex 24.7257 82.1492 1
      vertex 24.2468 82.3259 1
      vertex 24.2406 82.3068 1
    endloop
  endfacet
  facet normal 0.951057 -0.309014 0
    outer loop
      vertex 23.7808 82.4773 2
      vertex 35.2743 117.851 1
      vertex 35.2743 117.851 2
    endloop
  endfacet
  facet normal 0.951057 -0.309014 0
    outer loop
      vertex 35.2743 117.851 1
      vertex 23.7808 82.4773 2
      vertex 23.7808 82.4773 1
    endloop
  endfacet
  facet normal 0.308984 0.951067 -0
    outer loop
      vertex 24.7257 82.1492 1
      vertex 24.2406 82.3068 2
      vertex 24.7257 82.1492 2
    endloop
  endfacet
  facet normal 0.308984 0.951067 0
    outer loop
      vertex 24.2406 82.3068 2
      vertex 24.7257 82.1492 1
      vertex 24.2406 82.3068 1
    endloop
  endfacet
  facet normal -0.309693 -0.950837 0
    outer loop
      vertex 35.2743 117.851 1
      vertex 35.7594 117.693 2
      vertex 35.2743 117.851 2
    endloop
  endfacet
  facet normal -0.309693 -0.950837 -0
    outer loop
      vertex 35.7594 117.693 2
      vertex 35.2743 117.851 1
      vertex 35.7594 117.693 1
    endloop
  endfacet
  facet normal -0.951057 0.309016 0
    outer loop
      vertex 31.1054 40.9894 1
      vertex 42.5989 76.3629 2
      vertex 42.5989 76.3629 1
    endloop
  endfacet
  facet normal -0.951057 0.309016 0
    outer loop
      vertex 42.5989 76.3629 2
      vertex 31.1054 40.9894 1
      vertex 31.1054 40.9894 2
    endloop
  endfacet
  facet normal 0 0 1
    outer loop
      vertex 42.1391 76.5333 1
      vertex 41.6541 76.6909 1
      vertex 42.1329 76.5143 1
    endloop
  endfacet
  facet normal 0 0 1
    outer loop
      vertex 30.6265 41.166 1
      vertex 42.5989 76.3629 1
      vertex 42.1329 76.5143 1
    endloop
  endfacet
  facet normal 0 0 1
    outer loop
      vertex 30.1605 41.3175 1
      vertex 42.1329 76.5143 1
      vertex 41.6541 76.6909 1
    endloop
  endfacet
  facet normal 0 0 1
    outer loop
      vertex 42.5989 76.3629 1
      vertex 30.6265 41.166 1
      vertex 31.1054 40.9894 1
    endloop
  endfacet
  facet normal 0 0 1
    outer loop
      vertex 42.1329 76.5143 1
      vertex 30.1605 41.3175 1
      vertex 30.6265 41.166 1
    endloop
  endfacet
  facet normal 0 0 1
    outer loop
      vertex 31.1054 40.9894 1
      vertex 30.6265 41.166 1
      vertex 30.6203 41.147 1
    endloop
  endfacet
  facet normal 0.951056 -0.309019 0
    outer loop
      vertex 30.1605 41.3175 2
      vertex 41.6541 76.6909 1
      vertex 41.6541 76.6909 2
    endloop
  endfacet
  facet normal 0.951056 -0.309019 0
    outer loop
      vertex 41.6541 76.6909 1
      vertex 30.1605 41.3175 2
      vertex 30.1605 41.3175 1
    endloop
  endfacet
  facet normal 0.308984 0.951067 -0
    outer loop
      vertex 31.1054 40.9894 1
      vertex 30.6203 41.147 2
      vertex 31.1054 40.9894 2
    endloop
  endfacet
  facet normal 0.308984 0.951067 0
    outer loop
      vertex 30.6203 41.147 2
      vertex 31.1054 40.9894 1
      vertex 30.6203 41.147 1
    endloop
  endfacet
  facet normal -0.309042 -0.951048 0
    outer loop
      vertex 41.6541 76.6909 1
      vertex 42.1391 76.5333 2
      vertex 41.6541 76.6909 2
    endloop
  endfacet
  facet normal -0.309042 -0.951048 -0
    outer loop
      vertex 42.1391 76.5333 2
      vertex 41.6541 76.6909 1
      vertex 42.1391 76.5333 1
    endloop
  endfacet
  facet normal 0 0 -1
    outer loop
      vertex 30.6265 41.166 0
      vertex 60 70.709 0
      vertex 37.0253 1.52318e-05 0
    endloop
  endfacet
  facet normal 0 0 -1
    outer loop
      vertex 42.1329 76.5143 0
      vertex 35.7532 117.674 0
      vertex 53.6203 111.869 0
    endloop
  endfacet
  facet normal -0 0 -1
    outer loop
      vertex 60 70.709 0
      vertex 30.6265 41.166 0
      vertex 42.1329 76.5143 0
    endloop
  endfacet
  facet normal 0 0 -1
    outer loop
      vertex 24.2468 82.3259 0
      vertex 42.1329 76.5143 0
      vertex 30.6265 41.166 0
    endloop
  endfacet
  facet normal 0 -0 -1
    outer loop
      vertex 30.6265 41.166 0
      vertex 37.0253 1.52318e-05 0
      vertex 19.1392 5.81156 0
    endloop
  endfacet
  facet normal 0 0 -1
    outer loop
      vertex 35.7532 117.674 0
      vertex 29.3735 158.834 0
      vertex 47.2406 153.029 0
    endloop
  endfacet
  facet normal 0 0 -1
    outer loop
      vertex 42.1329 76.5143 0
      vertex 24.2468 82.3259 0
      vertex 35.7532 117.674 0
    endloop
  endfacet
  facet normal 0 0 -1
    outer loop
      vertex 29.3735 158.834 0
      vertex 29.093 186.507 0
      vertex 29.2886 186.49 0
    endloop
  endfacet
  facet normal 0 0 -1
    outer loop
      vertex 29.3735 158.834 0
      vertex 28.8989 186.536 0
      vertex 29.093 186.507 0
    endloop
  endfacet
  facet normal 0 0 -1
    outer loop
      vertex 17.8671 123.486 0
      vertex 35.7532 117.674 0
      vertex 24.2468 82.3259 0
    endloop
  endfacet
  facet normal 0 0 -1
    outer loop
      vertex 35.7532 117.674 0
      vertex 17.8671 123.486 0
      vertex 29.3735 158.834 0
    endloop
  endfacet
  facet normal 0 0 -1
    outer loop
      vertex 4.70999e-06 129.291 0
      vertex 29.3735 158.834 0
      vertex 17.8671 123.486 0
    endloop
  endfacet
  facet normal 0 0 -1
    outer loop
      vertex 29.3735 158.834 0
      vertex 28.7072 186.578 0
      vertex 28.8989 186.536 0
    endloop
  endfacet
  facet normal 0 0 -1
    outer loop
      vertex 29.3735 158.834 0
      vertex 28.5186 186.633 0
      vertex 28.7072 186.578 0
    endloop
  endfacet
  facet normal 0 -0 -1
    outer loop
      vertex 26.7726 188.124 0
      vertex 29.3735 158.834 0
      vertex 4.70999e-06 129.291 0
    endloop
  endfacet
  facet normal 0 0 -1
    outer loop
      vertex 29.3735 158.834 0
      vertex 28.334 186.699 0
      vertex 28.5186 186.633 0
    endloop
  endfacet
  facet normal 0 0 -1
    outer loop
      vertex 29.3735 158.834 0
      vertex 28.1541 186.778 0
      vertex 28.334 186.699 0
    endloop
  endfacet
  facet normal 0 0 -1
    outer loop
      vertex 29.3735 158.834 0
      vertex 27.9798 186.868 0
      vertex 28.1541 186.778 0
    endloop
  endfacet
  facet normal 0 0 -1
    outer loop
      vertex 29.3735 158.834 0
      vertex 27.8117 186.97 0
      vertex 27.9798 186.868 0
    endloop
  endfacet
  facet normal 0 0 -1
    outer loop
      vertex 29.3735 158.834 0
      vertex 27.6507 187.082 0
      vertex 27.8117 186.97 0
    endloop
  endfacet
  facet normal 0 0 -1
    outer loop
      vertex 29.3735 158.834 0
      vertex 27.4973 187.205 0
      vertex 27.6507 187.082 0
    endloop
  endfacet
  facet normal 0 0 -1
    outer loop
      vertex 29.3735 158.834 0
      vertex 27.3523 187.337 0
      vertex 27.4973 187.205 0
    endloop
  endfacet
  facet normal 0 0 -1
    outer loop
      vertex 29.3735 158.834 0
      vertex 27.2162 187.478 0
      vertex 27.3523 187.337 0
    endloop
  endfacet
  facet normal 0 0 -1
    outer loop
      vertex 29.3735 158.834 0
      vertex 27.0897 187.628 0
      vertex 27.2162 187.478 0
    endloop
  endfacet
  facet normal 0 0 -1
    outer loop
      vertex 29.3735 158.834 0
      vertex 26.9733 187.787 0
      vertex 27.0897 187.628 0
    endloop
  endfacet
  facet normal 0 0 -1
    outer loop
      vertex 29.3735 158.834 0
      vertex 26.8674 187.952 0
      vertex 26.9733 187.787 0
    endloop
  endfacet
  facet normal 0 0 -1
    outer loop
      vertex 29.3735 158.834 0
      vertex 26.7726 188.124 0
      vertex 26.8674 187.952 0
    endloop
  endfacet
  facet normal -0 0 -1
    outer loop
      vertex 26.7726 188.124 0
      vertex 4.70999e-06 129.291 0
      vertex 26.6893 188.302 0
    endloop
  endfacet
  facet normal -0 0 -1
    outer loop
      vertex 26.6893 188.302 0
      vertex 4.70999e-06 129.291 0
      vertex 26.6177 188.484 0
    endloop
  endfacet
  facet normal -0 0 -1
    outer loop
      vertex 26.6177 188.484 0
      vertex 4.70999e-06 129.291 0
      vertex 26.5583 188.671 0
    endloop
  endfacet
  facet normal -0 0 -1
    outer loop
      vertex 26.5583 188.671 0
      vertex 4.70999e-06 129.291 0
      vertex 26.5112 188.862 0
    endloop
  endfacet
  facet normal 0 -0 -1
    outer loop
      vertex 22.9747 200 0
      vertex 26.5112 188.862 0
      vertex 4.70999e-06 129.291 0
    endloop
  endfacet
  facet normal 0 -0 -1
    outer loop
      vertex 24.2468 82.3259 0
      vertex 30.6265 41.166 0
      vertex 12.7594 46.9714 0
    endloop
  endfacet
  facet normal 0 0 -1
    outer loop
      vertex 40.8608 194.188 0
      vertex 32.4415 189.329 0
      vertex 32.4454 189.525 0
    endloop
  endfacet
  facet normal 0 0 -1
    outer loop
      vertex 40.8608 194.188 0
      vertex 32.4249 189.133 0
      vertex 32.4415 189.329 0
    endloop
  endfacet
  facet normal 0 0 -1
    outer loop
      vertex 40.8608 194.188 0
      vertex 32.3954 188.939 0
      vertex 32.4249 189.133 0
    endloop
  endfacet
  facet normal 0 0 -1
    outer loop
      vertex 40.8608 194.188 0
      vertex 32.3533 188.747 0
      vertex 32.3954 188.939 0
    endloop
  endfacet
  facet normal 0 0 -1
    outer loop
      vertex 40.8608 194.188 0
      vertex 32.2988 188.559 0
      vertex 32.3533 188.747 0
    endloop
  endfacet
  facet normal 0 0 -1
    outer loop
      vertex 40.8608 194.188 0
      vertex 32.2321 188.374 0
      vertex 32.2988 188.559 0
    endloop
  endfacet
  facet normal 0 0 -1
    outer loop
      vertex 40.8608 194.188 0
      vertex 32.1534 188.194 0
      vertex 32.2321 188.374 0
    endloop
  endfacet
  facet normal 0 0 -1
    outer loop
      vertex 40.8608 194.188 0
      vertex 32.0631 188.02 0
      vertex 32.1534 188.194 0
    endloop
  endfacet
  facet normal 0 0 -1
    outer loop
      vertex 40.8608 194.188 0
      vertex 31.9617 187.852 0
      vertex 32.0631 188.02 0
    endloop
  endfacet
  facet normal 0 0 -1
    outer loop
      vertex 40.8608 194.188 0
      vertex 31.8494 187.691 0
      vertex 31.9617 187.852 0
    endloop
  endfacet
  facet normal 0 0 -1
    outer loop
      vertex 40.8608 194.188 0
      vertex 31.7269 187.537 0
      vertex 31.8494 187.691 0
    endloop
  endfacet
  facet normal 0 0 -1
    outer loop
      vertex 29.3735 158.834 0
      vertex 31.7269 187.537 0
      vertex 40.8608 194.188 0
    endloop
  endfacet
  facet normal 0 0 -1
    outer loop
      vertex 31.7269 187.537 0
      vertex 29.3735 158.834 0
      vertex 31.5946 187.392 0
    endloop
  endfacet
  facet normal 0 0 -1
    outer loop
      vertex 31.5946 187.392 0
      vertex 29.3735 158.834 0
      vertex 31.453 187.256 0
    endloop
  endfacet
  facet normal 0 0 -1
    outer loop
      vertex 31.453 187.256 0
      vertex 29.3735 158.834 0
      vertex 31.3029 187.13 0
    endloop
  endfacet
  facet normal 0 0 -1
    outer loop
      vertex 29.3735 158.834 0
      vertex 31.1449 187.013 0
      vertex 31.3029 187.13 0
    endloop
  endfacet
  facet normal 0 0 -1
    outer loop
      vertex 29.3735 158.834 0
      vertex 30.9795 186.908 0
      vertex 31.1449 187.013 0
    endloop
  endfacet
  facet normal 0 0 -1
    outer loop
      vertex 29.3735 158.834 0
      vertex 30.8076 186.813 0
      vertex 30.9795 186.908 0
    endloop
  endfacet
  facet normal 0 0 -1
    outer loop
      vertex 29.3735 158.834 0
      vertex 30.6299 186.729 0
      vertex 30.8076 186.813 0
    endloop
  endfacet
  facet normal 0 0 -1
    outer loop
      vertex 29.3735 158.834 0
      vertex 30.4471 186.658 0
      vertex 30.6299 186.729 0
    endloop
  endfacet
  facet normal 0 0 -1
    outer loop
      vertex 29.3735 158.834 0
      vertex 30.26 186.598 0
      vertex 30.4471 186.658 0
    endloop
  endfacet
  facet normal 0 0 -1
    outer loop
      vertex 29.3735 158.834 0
      vertex 30.0694 186.551 0
      vertex 30.26 186.598 0
    endloop
  endfacet
  facet normal 0 0 -1
    outer loop
      vertex 29.3735 158.834 0
      vertex 29.8761 186.517 0
      vertex 30.0694 186.551 0
    endloop
  endfacet
  facet normal 0 0 -1
    outer loop
      vertex 29.3735 158.834 0
      vertex 29.681 186.495 0
      vertex 29.8761 186.517 0
    endloop
  endfacet
  facet normal 0 0 -1
    outer loop
      vertex 29.3735 158.834 0
      vertex 29.4849 186.486 0
      vertex 29.681 186.495 0
    endloop
  endfacet
  facet normal -0 0 -1
    outer loop
      vertex 29.4849 186.486 0
      vertex 29.3735 158.834 0
      vertex 29.2886 186.49 0
    endloop
  endfacet
  facet normal 0 0 -1
    outer loop
      vertex 32.4364 189.721 0
      vertex 40.8608 194.188 0
      vertex 32.4454 189.525 0
    endloop
  endfacet
  facet normal 0 0 -1
    outer loop
      vertex 32.4146 189.916 0
      vertex 40.8608 194.188 0
      vertex 32.4364 189.721 0
    endloop
  endfacet
  facet normal 0 0 -1
    outer loop
      vertex 32.3801 190.11 0
      vertex 40.8608 194.188 0
      vertex 32.4146 189.916 0
    endloop
  endfacet
  facet normal 0 0 -1
    outer loop
      vertex 32.333 190.3 0
      vertex 40.8608 194.188 0
      vertex 32.3801 190.11 0
    endloop
  endfacet
  facet normal 0 0 -1
    outer loop
      vertex 32.2736 190.487 0
      vertex 40.8608 194.188 0
      vertex 32.333 190.3 0
    endloop
  endfacet
  facet normal 0 0 -1
    outer loop
      vertex 32.202 190.67 0
      vertex 40.8608 194.188 0
      vertex 32.2736 190.487 0
    endloop
  endfacet
  facet normal 0 0 -1
    outer loop
      vertex 32.1187 190.848 0
      vertex 40.8608 194.188 0
      vertex 32.202 190.67 0
    endloop
  endfacet
  facet normal 0 0 -1
    outer loop
      vertex 32.0239 191.02 0
      vertex 40.8608 194.188 0
      vertex 32.1187 190.848 0
    endloop
  endfacet
  facet normal 0 0 -1
    outer loop
      vertex 31.918 191.185 0
      vertex 40.8608 194.188 0
      vertex 32.0239 191.02 0
    endloop
  endfacet
  facet normal 0 0 -1
    outer loop
      vertex 31.8016 191.343 0
      vertex 40.8608 194.188 0
      vertex 31.918 191.185 0
    endloop
  endfacet
  facet normal 0 0 -1
    outer loop
      vertex 31.6751 191.493 0
      vertex 40.8608 194.188 0
      vertex 31.8016 191.343 0
    endloop
  endfacet
  facet normal 0 0 -1
    outer loop
      vertex 31.539 191.635 0
      vertex 40.8608 194.188 0
      vertex 31.6751 191.493 0
    endloop
  endfacet
  facet normal 0 0 -1
    outer loop
      vertex 31.394 191.767 0
      vertex 40.8608 194.188 0
      vertex 31.539 191.635 0
    endloop
  endfacet
  facet normal 0 0 -1
    outer loop
      vertex 31.2406 191.89 0
      vertex 40.8608 194.188 0
      vertex 31.394 191.767 0
    endloop
  endfacet
  facet normal 0 0 -1
    outer loop
      vertex 31.0796 192.002 0
      vertex 40.8608 194.188 0
      vertex 31.2406 191.89 0
    endloop
  endfacet
  facet normal 0 0 -1
    outer loop
      vertex 30.9115 192.103 0
      vertex 40.8608 194.188 0
      vertex 31.0796 192.002 0
    endloop
  endfacet
  facet normal 0 0 -1
    outer loop
      vertex 30.7372 192.194 0
      vertex 40.8608 194.188 0
      vertex 30.9115 192.103 0
    endloop
  endfacet
  facet normal 0 0 -1
    outer loop
      vertex 30.5573 192.272 0
      vertex 40.8608 194.188 0
      vertex 30.7372 192.194 0
    endloop
  endfacet
  facet normal 0 0 -1
    outer loop
      vertex 30.3727 192.339 0
      vertex 40.8608 194.188 0
      vertex 30.5573 192.272 0
    endloop
  endfacet
  facet normal 0 0 -1
    outer loop
      vertex 22.9747 200 0
      vertex 30.3727 192.339 0
      vertex 30.1841 192.393 0
    endloop
  endfacet
  facet normal 0 0 -1
    outer loop
      vertex 22.9747 200 0
      vertex 30.1841 192.393 0
      vertex 29.9923 192.436 0
    endloop
  endfacet
  facet normal 0 0 -1
    outer loop
      vertex 22.9747 200 0
      vertex 29.9923 192.436 0
      vertex 29.7983 192.465 0
    endloop
  endfacet
  facet normal 0 0 -1
    outer loop
      vertex 22.9747 200 0
      vertex 29.7983 192.465 0
      vertex 29.6027 192.482 0
    endloop
  endfacet
  facet normal 0 0 -1
    outer loop
      vertex 22.9747 200 0
      vertex 29.6027 192.482 0
      vertex 29.4064 192.486 0
    endloop
  endfacet
  facet normal 0 0 -1
    outer loop
      vertex 22.9747 200 0
      vertex 29.4064 192.486 0
      vertex 29.2103 192.477 0
    endloop
  endfacet
  facet normal 0 0 -1
    outer loop
      vertex 22.9747 200 0
      vertex 29.2103 192.477 0
      vertex 29.0152 192.455 0
    endloop
  endfacet
  facet normal 0 0 -1
    outer loop
      vertex 26.5112 188.862 0
      vertex 22.9747 200 0
      vertex 26.4767 189.055 0
    endloop
  endfacet
  facet normal 0 0 -1
    outer loop
      vertex 30.3727 192.339 0
      vertex 22.9747 200 0
      vertex 40.8608 194.188 0
    endloop
  endfacet
  facet normal 0 0 -1
    outer loop
      vertex 28.8219 192.42 0
      vertex 22.9747 200 0
      vertex 29.0152 192.455 0
    endloop
  endfacet
  facet normal 0 0 -1
    outer loop
      vertex 28.6313 192.373 0
      vertex 22.9747 200 0
      vertex 28.8219 192.42 0
    endloop
  endfacet
  facet normal 0 0 -1
    outer loop
      vertex 28.4442 192.314 0
      vertex 22.9747 200 0
      vertex 28.6313 192.373 0
    endloop
  endfacet
  facet normal 0 0 -1
    outer loop
      vertex 28.2614 192.242 0
      vertex 22.9747 200 0
      vertex 28.4442 192.314 0
    endloop
  endfacet
  facet normal 0 0 -1
    outer loop
      vertex 28.0837 192.159 0
      vertex 22.9747 200 0
      vertex 28.2614 192.242 0
    endloop
  endfacet
  facet normal 0 0 -1
    outer loop
      vertex 27.9118 192.064 0
      vertex 22.9747 200 0
      vertex 28.0837 192.159 0
    endloop
  endfacet
  facet normal 0 0 -1
    outer loop
      vertex 27.7464 191.958 0
      vertex 22.9747 200 0
      vertex 27.9118 192.064 0
    endloop
  endfacet
  facet normal 0 0 -1
    outer loop
      vertex 27.5884 191.842 0
      vertex 22.9747 200 0
      vertex 27.7464 191.958 0
    endloop
  endfacet
  facet normal 0 0 -1
    outer loop
      vertex 27.4383 191.715 0
      vertex 22.9747 200 0
      vertex 27.5884 191.842 0
    endloop
  endfacet
  facet normal 0 0 -1
    outer loop
      vertex 27.2967 191.579 0
      vertex 22.9747 200 0
      vertex 27.4383 191.715 0
    endloop
  endfacet
  facet normal 0 0 -1
    outer loop
      vertex 27.1644 191.434 0
      vertex 22.9747 200 0
      vertex 27.2967 191.579 0
    endloop
  endfacet
  facet normal 0 0 -1
    outer loop
      vertex 27.0419 191.281 0
      vertex 22.9747 200 0
      vertex 27.1644 191.434 0
    endloop
  endfacet
  facet normal 0 0 -1
    outer loop
      vertex 26.9296 191.12 0
      vertex 22.9747 200 0
      vertex 27.0419 191.281 0
    endloop
  endfacet
  facet normal 0 0 -1
    outer loop
      vertex 26.8282 190.952 0
      vertex 22.9747 200 0
      vertex 26.9296 191.12 0
    endloop
  endfacet
  facet normal 0 0 -1
    outer loop
      vertex 26.7379 190.777 0
      vertex 22.9747 200 0
      vertex 26.8282 190.952 0
    endloop
  endfacet
  facet normal 0 0 -1
    outer loop
      vertex 26.6592 190.597 0
      vertex 22.9747 200 0
      vertex 26.7379 190.777 0
    endloop
  endfacet
  facet normal 0 0 -1
    outer loop
      vertex 26.5925 190.413 0
      vertex 22.9747 200 0
      vertex 26.6592 190.597 0
    endloop
  endfacet
  facet normal 0 0 -1
    outer loop
      vertex 26.538 190.224 0
      vertex 22.9747 200 0
      vertex 26.5925 190.413 0
    endloop
  endfacet
  facet normal 0 0 -1
    outer loop
      vertex 26.4959 190.032 0
      vertex 22.9747 200 0
      vertex 26.538 190.224 0
    endloop
  endfacet
  facet normal 0 0 -1
    outer loop
      vertex 26.4664 189.838 0
      vertex 22.9747 200 0
      vertex 26.4959 190.032 0
    endloop
  endfacet
  facet normal 0 0 -1
    outer loop
      vertex 26.4498 189.643 0
      vertex 22.9747 200 0
      vertex 26.4664 189.838 0
    endloop
  endfacet
  facet normal 0 0 -1
    outer loop
      vertex 26.4767 189.055 0
      vertex 22.9747 200 0
      vertex 26.4549 189.25 0
    endloop
  endfacet
  facet normal 0 0 -1
    outer loop
      vertex 26.4549 189.25 0
      vertex 22.9747 200 0
      vertex 26.4459 189.447 0
    endloop
  endfacet
  facet normal 0 -0 -1
    outer loop
      vertex 17.8671 123.486 0
      vertex 24.2468 82.3259 0
      vertex 6.37972 88.1312 0
    endloop
  endfacet
  facet normal 0 0 -1
    outer loop
      vertex 26.4459 189.447 0
      vertex 22.9747 200 0
      vertex 26.4498 189.643 0
    endloop
  endfacet
  facet normal 0 0 1
    outer loop
      vertex 47.2406 153.029 2
      vertex 35.2743 117.851 2
      vertex 35.7594 117.693 2
    endloop
  endfacet
  facet normal 0 0 1
    outer loop
      vertex 29.8395 158.683 2
      vertex 35.2743 117.851 2
      vertex 47.2406 153.029 2
    endloop
  endfacet
  facet normal -0 0 1
    outer loop
      vertex 18.3459 123.309 2
      vertex 35.2743 117.851 2
      vertex 29.8395 158.683 2
    endloop
  endfacet
  facet normal 0 0 1
    outer loop
      vertex 35.2743 117.851 2
      vertex 18.3459 123.309 2
      vertex 23.7808 82.4773 2
    endloop
  endfacet
  facet normal 0 0 1
    outer loop
      vertex 6.37972 88.1312 2
      vertex 18.3459 123.309 2
      vertex 17.8609 123.467 2
    endloop
  endfacet
  facet normal 0 0 1
    outer loop
      vertex 18.3459 123.309 2
      vertex 6.37972 88.1312 2
      vertex 23.7808 82.4773 2
    endloop
  endfacet
  facet normal 0 0 1
    outer loop
      vertex 53.6203 111.869 2
      vertex 41.6541 76.6909 2
      vertex 42.1391 76.5333 2
    endloop
  endfacet
  facet normal 0 0 1
    outer loop
      vertex 36.2192 117.523 2
      vertex 41.6541 76.6909 2
      vertex 53.6203 111.869 2
    endloop
  endfacet
  facet normal -0 0 1
    outer loop
      vertex 24.7257 82.1492 2
      vertex 41.6541 76.6909 2
      vertex 36.2192 117.523 2
    endloop
  endfacet
  facet normal 0 0 1
    outer loop
      vertex 41.6541 76.6909 2
      vertex 24.7257 82.1492 2
      vertex 30.1605 41.3175 2
    endloop
  endfacet
  facet normal 0 0 1
    outer loop
      vertex 12.7594 46.9714 2
      vertex 24.7257 82.1492 2
      vertex 24.2406 82.3068 2
    endloop
  endfacet
  facet normal 0 0 1
    outer loop
      vertex 24.7257 82.1492 2
      vertex 12.7594 46.9714 2
      vertex 30.1605 41.3175 2
    endloop
  endfacet
  facet normal 0 0 1
    outer loop
      vertex 31.1054 40.9894 2
      vertex 60 70.709 2
      vertex 42.5989 76.3629 2
    endloop
  endfacet
  facet normal 0 0 1
    outer loop
      vertex 60 70.709 2
      vertex 31.1054 40.9894 2
      vertex 37.0253 1.52318e-05 2
    endloop
  endfacet
  facet normal 0 0 1
    outer loop
      vertex 19.1392 5.81156 2
      vertex 31.1054 40.9894 2
      vertex 30.6203 41.147 2
    endloop
  endfacet
  facet normal 0 0 1
    outer loop
      vertex 31.1054 40.9894 2
      vertex 19.1392 5.81156 2
      vertex 37.0253 1.52318e-05 2
    endloop
  endfacet
  facet normal 0 0 1
    outer loop
      vertex 40.8608 194.188 2
      vertex 32.4364 189.721 2
      vertex 32.4454 189.525 2
    endloop
  endfacet
  facet normal 0 0 1
    outer loop
      vertex 40.8608 194.188 2
      vertex 32.4146 189.916 2
      vertex 32.4364 189.721 2
    endloop
  endfacet
  facet normal 0 0 1
    outer loop
      vertex 40.8608 194.188 2
      vertex 32.3801 190.11 2
      vertex 32.4146 189.916 2
    endloop
  endfacet
  facet normal 0 0 1
    outer loop
      vertex 40.8608 194.188 2
      vertex 32.333 190.3 2
      vertex 32.3801 190.11 2
    endloop
  endfacet
  facet normal 0 0 1
    outer loop
      vertex 40.8608 194.188 2
      vertex 32.2736 190.487 2
      vertex 32.333 190.3 2
    endloop
  endfacet
  facet normal 0 0 1
    outer loop
      vertex 40.8608 194.188 2
      vertex 32.202 190.67 2
      vertex 32.2736 190.487 2
    endloop
  endfacet
  facet normal 0 0 1
    outer loop
      vertex 40.8608 194.188 2
      vertex 32.1187 190.848 2
      vertex 32.202 190.67 2
    endloop
  endfacet
  facet normal 0 0 1
    outer loop
      vertex 40.8608 194.188 2
      vertex 32.0239 191.02 2
      vertex 32.1187 190.848 2
    endloop
  endfacet
  facet normal 0 0 1
    outer loop
      vertex 40.8608 194.188 2
      vertex 31.918 191.185 2
      vertex 32.0239 191.02 2
    endloop
  endfacet
  facet normal 0 0 1
    outer loop
      vertex 40.8608 194.188 2
      vertex 31.8016 191.343 2
      vertex 31.918 191.185 2
    endloop
  endfacet
  facet normal 0 0 1
    outer loop
      vertex 40.8608 194.188 2
      vertex 31.6751 191.493 2
      vertex 31.8016 191.343 2
    endloop
  endfacet
  facet normal 0 0 1
    outer loop
      vertex 40.8608 194.188 2
      vertex 31.539 191.635 2
      vertex 31.6751 191.493 2
    endloop
  endfacet
  facet normal 0 0 1
    outer loop
      vertex 40.8608 194.188 2
      vertex 31.394 191.767 2
      vertex 31.539 191.635 2
    endloop
  endfacet
  facet normal 0 0 1
    outer loop
      vertex 40.8608 194.188 2
      vertex 31.2406 191.89 2
      vertex 31.394 191.767 2
    endloop
  endfacet
  facet normal 0 0 1
    outer loop
      vertex 40.8608 194.188 2
      vertex 31.0796 192.002 2
      vertex 31.2406 191.89 2
    endloop
  endfacet
  facet normal 0 0 1
    outer loop
      vertex 40.8608 194.188 2
      vertex 30.9115 192.103 2
      vertex 31.0796 192.002 2
    endloop
  endfacet
  facet normal 0 0 1
    outer loop
      vertex 40.8608 194.188 2
      vertex 30.7372 192.194 2
      vertex 30.9115 192.103 2
    endloop
  endfacet
  facet normal 0 0 1
    outer loop
      vertex 40.8608 194.188 2
      vertex 30.5573 192.272 2
      vertex 30.7372 192.194 2
    endloop
  endfacet
  facet normal 0 0 1
    outer loop
      vertex 40.8608 194.188 2
      vertex 30.3727 192.339 2
      vertex 30.5573 192.272 2
    endloop
  endfacet
  facet normal 0 0 1
    outer loop
      vertex 22.9747 200 2
      vertex 30.3727 192.339 2
      vertex 40.8608 194.188 2
    endloop
  endfacet
  facet normal 0 0 1
    outer loop
      vertex 30.3727 192.339 2
      vertex 22.9747 200 2
      vertex 30.1841 192.393 2
    endloop
  endfacet
  facet normal 0 0 1
    outer loop
      vertex 30.1841 192.393 2
      vertex 22.9747 200 2
      vertex 29.9923 192.436 2
    endloop
  endfacet
  facet normal 0 0 1
    outer loop
      vertex 29.9923 192.436 2
      vertex 22.9747 200 2
      vertex 29.7983 192.465 2
    endloop
  endfacet
  facet normal 0 0 1
    outer loop
      vertex 29.7983 192.465 2
      vertex 22.9747 200 2
      vertex 29.6027 192.482 2
    endloop
  endfacet
  facet normal 0 0 1
    outer loop
      vertex 29.6027 192.482 2
      vertex 22.9747 200 2
      vertex 29.4064 192.486 2
    endloop
  endfacet
  facet normal 0 0 1
    outer loop
      vertex 29.4064 192.486 2
      vertex 22.9747 200 2
      vertex 29.2103 192.477 2
    endloop
  endfacet
  facet normal 0 0 1
    outer loop
      vertex 26.4498 189.643 2
      vertex 22.9747 200 2
      vertex 26.4459 189.447 2
    endloop
  endfacet
  facet normal 0 0 1
    outer loop
      vertex 26.4664 189.838 2
      vertex 22.9747 200 2
      vertex 26.4498 189.643 2
    endloop
  endfacet
  facet normal 0 0 1
    outer loop
      vertex 26.4959 190.032 2
      vertex 22.9747 200 2
      vertex 26.4664 189.838 2
    endloop
  endfacet
  facet normal 0 0 1
    outer loop
      vertex 26.538 190.224 2
      vertex 22.9747 200 2
      vertex 26.4959 190.032 2
    endloop
  endfacet
  facet normal 0 0 1
    outer loop
      vertex 26.5925 190.413 2
      vertex 22.9747 200 2
      vertex 26.538 190.224 2
    endloop
  endfacet
  facet normal 0 0 1
    outer loop
      vertex 26.6592 190.597 2
      vertex 22.9747 200 2
      vertex 26.5925 190.413 2
    endloop
  endfacet
  facet normal 0 0 1
    outer loop
      vertex 26.7379 190.777 2
      vertex 22.9747 200 2
      vertex 26.6592 190.597 2
    endloop
  endfacet
  facet normal 0 0 1
    outer loop
      vertex 26.8282 190.952 2
      vertex 22.9747 200 2
      vertex 26.7379 190.777 2
    endloop
  endfacet
  facet normal 0 0 1
    outer loop
      vertex 26.9296 191.12 2
      vertex 22.9747 200 2
      vertex 26.8282 190.952 2
    endloop
  endfacet
  facet normal 0 0 1
    outer loop
      vertex 27.0419 191.281 2
      vertex 22.9747 200 2
      vertex 26.9296 191.12 2
    endloop
  endfacet
  facet normal 0 0 1
    outer loop
      vertex 27.1644 191.434 2
      vertex 22.9747 200 2
      vertex 27.0419 191.281 2
    endloop
  endfacet
  facet normal 0 0 1
    outer loop
      vertex 27.2967 191.579 2
      vertex 22.9747 200 2
      vertex 27.1644 191.434 2
    endloop
  endfacet
  facet normal 0 0 1
    outer loop
      vertex 27.4383 191.715 2
      vertex 22.9747 200 2
      vertex 27.2967 191.579 2
    endloop
  endfacet
  facet normal 0 0 1
    outer loop
      vertex 27.5884 191.842 2
      vertex 22.9747 200 2
      vertex 27.4383 191.715 2
    endloop
  endfacet
  facet normal 0 0 1
    outer loop
      vertex 27.7464 191.958 2
      vertex 22.9747 200 2
      vertex 27.5884 191.842 2
    endloop
  endfacet
  facet normal 0 0 1
    outer loop
      vertex 27.9118 192.064 2
      vertex 22.9747 200 2
      vertex 27.7464 191.958 2
    endloop
  endfacet
  facet normal 0 0 1
    outer loop
      vertex 28.0837 192.159 2
      vertex 22.9747 200 2
      vertex 27.9118 192.064 2
    endloop
  endfacet
  facet normal 0 0 1
    outer loop
      vertex 28.2614 192.242 2
      vertex 22.9747 200 2
      vertex 28.0837 192.159 2
    endloop
  endfacet
  facet normal 0 0 1
    outer loop
      vertex 28.4442 192.314 2
      vertex 22.9747 200 2
      vertex 28.2614 192.242 2
    endloop
  endfacet
  facet normal 0 0 1
    outer loop
      vertex 28.6313 192.373 2
      vertex 22.9747 200 2
      vertex 28.4442 192.314 2
    endloop
  endfacet
  facet normal 0 0 1
    outer loop
      vertex 28.8219 192.42 2
      vertex 22.9747 200 2
      vertex 28.6313 192.373 2
    endloop
  endfacet
  facet normal 0 0 1
    outer loop
      vertex 29.0152 192.455 2
      vertex 22.9747 200 2
      vertex 28.8219 192.42 2
    endloop
  endfacet
  facet normal 0 0 1
    outer loop
      vertex 29.2103 192.477 2
      vertex 22.9747 200 2
      vertex 29.0152 192.455 2
    endloop
  endfacet
  facet normal 0 0 1
    outer loop
      vertex 32.4415 189.329 2
      vertex 40.8608 194.188 2
      vertex 32.4454 189.525 2
    endloop
  endfacet
  facet normal 0 0 1
    outer loop
      vertex 32.4249 189.133 2
      vertex 40.8608 194.188 2
      vertex 32.4415 189.329 2
    endloop
  endfacet
  facet normal 0 0 1
    outer loop
      vertex 32.3954 188.939 2
      vertex 40.8608 194.188 2
      vertex 32.4249 189.133 2
    endloop
  endfacet
  facet normal 0 0 1
    outer loop
      vertex 32.3533 188.747 2
      vertex 40.8608 194.188 2
      vertex 32.3954 188.939 2
    endloop
  endfacet
  facet normal 0 0 1
    outer loop
      vertex 32.2988 188.559 2
      vertex 40.8608 194.188 2
      vertex 32.3533 188.747 2
    endloop
  endfacet
  facet normal 0 0 1
    outer loop
      vertex 32.2321 188.374 2
      vertex 40.8608 194.188 2
      vertex 32.2988 188.559 2
    endloop
  endfacet
  facet normal 0 0 1
    outer loop
      vertex 32.1534 188.194 2
      vertex 40.8608 194.188 2
      vertex 32.2321 188.374 2
    endloop
  endfacet
  facet normal 0 0 1
    outer loop
      vertex 32.0631 188.02 2
      vertex 40.8608 194.188 2
      vertex 32.1534 188.194 2
    endloop
  endfacet
  facet normal 0 0 1
    outer loop
      vertex 31.9617 187.852 2
      vertex 40.8608 194.188 2
      vertex 32.0631 188.02 2
    endloop
  endfacet
  facet normal 0 0 1
    outer loop
      vertex 31.8494 187.691 2
      vertex 40.8608 194.188 2
      vertex 31.9617 187.852 2
    endloop
  endfacet
  facet normal 0 0 1
    outer loop
      vertex 31.7269 187.537 2
      vertex 40.8608 194.188 2
      vertex 31.8494 187.691 2
    endloop
  endfacet
  facet normal 0 0 1
    outer loop
      vertex 29.3797 158.853 2
      vertex 31.7269 187.537 2
      vertex 31.5946 187.392 2
    endloop
  endfacet
  facet normal 0 0 1
    outer loop
      vertex 29.3797 158.853 2
      vertex 31.5946 187.392 2
      vertex 31.453 187.256 2
    endloop
  endfacet
  facet normal 0 0 1
    outer loop
      vertex 29.3797 158.853 2
      vertex 31.453 187.256 2
      vertex 31.3029 187.13 2
    endloop
  endfacet
  facet normal -0 0 1
    outer loop
      vertex 31.7269 187.537 2
      vertex 29.3797 158.853 2
      vertex 40.8608 194.188 2
    endloop
  endfacet
  facet normal -0 0 1
    outer loop
      vertex 31.1449 187.013 2
      vertex 29.3797 158.853 2
      vertex 31.3029 187.13 2
    endloop
  endfacet
  facet normal -0 0 1
    outer loop
      vertex 30.9795 186.908 2
      vertex 29.3797 158.853 2
      vertex 31.1449 187.013 2
    endloop
  endfacet
  facet normal -0 0 1
    outer loop
      vertex 30.8076 186.813 2
      vertex 29.3797 158.853 2
      vertex 30.9795 186.908 2
    endloop
  endfacet
  facet normal -0 0 1
    outer loop
      vertex 30.6299 186.729 2
      vertex 29.3797 158.853 2
      vertex 30.8076 186.813 2
    endloop
  endfacet
  facet normal -0 0 1
    outer loop
      vertex 30.4471 186.658 2
      vertex 29.3797 158.853 2
      vertex 30.6299 186.729 2
    endloop
  endfacet
  facet normal -0 0 1
    outer loop
      vertex 30.26 186.598 2
      vertex 29.3797 158.853 2
      vertex 30.4471 186.658 2
    endloop
  endfacet
  facet normal -0 0 1
    outer loop
      vertex 30.0694 186.551 2
      vertex 29.3797 158.853 2
      vertex 30.26 186.598 2
    endloop
  endfacet
  facet normal 0 0 1
    outer loop
      vertex 28.8946 159.011 2
      vertex 30.0694 186.551 2
      vertex 29.8761 186.517 2
    endloop
  endfacet
  facet normal 0 0 1
    outer loop
      vertex 28.8946 159.011 2
      vertex 29.8761 186.517 2
      vertex 29.681 186.495 2
    endloop
  endfacet
  facet normal 0 0 1
    outer loop
      vertex 28.8946 159.011 2
      vertex 29.681 186.495 2
      vertex 29.4849 186.486 2
    endloop
  endfacet
  facet normal 0 0 1
    outer loop
      vertex 28.8946 159.011 2
      vertex 29.4849 186.486 2
      vertex 29.2886 186.49 2
    endloop
  endfacet
  facet normal 0 0 1
    outer loop
      vertex 28.8946 159.011 2
      vertex 29.2886 186.49 2
      vertex 29.093 186.507 2
    endloop
  endfacet
  facet normal 0 0 1
    outer loop
      vertex 28.8946 159.011 2
      vertex 29.093 186.507 2
      vertex 28.8989 186.536 2
    endloop
  endfacet
  facet normal 0 0 1
    outer loop
      vertex 30.0694 186.551 2
      vertex 28.8946 159.011 2
      vertex 29.3797 158.853 2
    endloop
  endfacet
  facet normal 0 0 1
    outer loop
      vertex 28.7072 186.578 2
      vertex 28.8946 159.011 2
      vertex 28.8989 186.536 2
    endloop
  endfacet
  facet normal 0 0 1
    outer loop
      vertex 28.5186 186.633 2
      vertex 28.8946 159.011 2
      vertex 28.7072 186.578 2
    endloop
  endfacet
  facet normal 0 0 1
    outer loop
      vertex 28.334 186.699 2
      vertex 28.8946 159.011 2
      vertex 28.5186 186.633 2
    endloop
  endfacet
  facet normal 0 0 1
    outer loop
      vertex 28.1541 186.778 2
      vertex 28.8946 159.011 2
      vertex 28.334 186.699 2
    endloop
  endfacet
  facet normal 0 0 1
    outer loop
      vertex 27.9798 186.868 2
      vertex 28.8946 159.011 2
      vertex 28.1541 186.778 2
    endloop
  endfacet
  facet normal 0 0 1
    outer loop
      vertex 27.8117 186.97 2
      vertex 28.8946 159.011 2
      vertex 27.9798 186.868 2
    endloop
  endfacet
  facet normal 0 0 1
    outer loop
      vertex 27.6507 187.082 2
      vertex 28.8946 159.011 2
      vertex 27.8117 186.97 2
    endloop
  endfacet
  facet normal 0 0 1
    outer loop
      vertex 27.4973 187.205 2
      vertex 28.8946 159.011 2
      vertex 27.6507 187.082 2
    endloop
  endfacet
  facet normal 0 0 1
    outer loop
      vertex 27.3523 187.337 2
      vertex 28.8946 159.011 2
      vertex 27.4973 187.205 2
    endloop
  endfacet
  facet normal 0 0 1
    outer loop
      vertex 27.2162 187.478 2
      vertex 28.8946 159.011 2
      vertex 27.3523 187.337 2
    endloop
  endfacet
  facet normal 0 0 1
    outer loop
      vertex 27.0897 187.628 2
      vertex 28.8946 159.011 2
      vertex 27.2162 187.478 2
    endloop
  endfacet
  facet normal 0 0 1
    outer loop
      vertex 26.9733 187.787 2
      vertex 28.8946 159.011 2
      vertex 27.0897 187.628 2
    endloop
  endfacet
  facet normal 0 0 1
    outer loop
      vertex 26.8674 187.952 2
      vertex 28.8946 159.011 2
      vertex 26.9733 187.787 2
    endloop
  endfacet
  facet normal 0 0 1
    outer loop
      vertex 26.7726 188.124 2
      vertex 28.8946 159.011 2
      vertex 26.8674 187.952 2
    endloop
  endfacet
  facet normal 0 0 1
    outer loop
      vertex 26.6893 188.302 2
      vertex 28.8946 159.011 2
      vertex 26.7726 188.124 2
    endloop
  endfacet
  facet normal 0 0 1
    outer loop
      vertex 4.70999e-06 129.291 2
      vertex 26.6893 188.302 2
      vertex 26.6177 188.484 2
    endloop
  endfacet
  facet normal 0 0 1
    outer loop
      vertex 4.70999e-06 129.291 2
      vertex 26.6177 188.484 2
      vertex 26.5583 188.671 2
    endloop
  endfacet
  facet normal 0 0 1
    outer loop
      vertex 4.70999e-06 129.291 2
      vertex 26.5583 188.671 2
      vertex 26.5112 188.862 2
    endloop
  endfacet
  facet normal 0 0 1
    outer loop
      vertex 22.9747 200 2
      vertex 26.5112 188.862 2
      vertex 26.4767 189.055 2
    endloop
  endfacet
  facet normal 0 0 1
    outer loop
      vertex 22.9747 200 2
      vertex 26.4767 189.055 2
      vertex 26.4549 189.25 2
    endloop
  endfacet
  facet normal 0 0 1
    outer loop
      vertex 22.9747 200 2
      vertex 26.4549 189.25 2
      vertex 26.4459 189.447 2
    endloop
  endfacet
  facet normal 0 0 1
    outer loop
      vertex 26.5112 188.862 2
      vertex 22.9747 200 2
      vertex 4.70999e-06 129.291 2
    endloop
  endfacet
  facet normal 0 0 1
    outer loop
      vertex 26.6893 188.302 2
      vertex 4.70999e-06 129.291 2
      vertex 28.8946 159.011 2
    endloop
  endfacet
  facet normal 0 0 1
    outer loop
      vertex 28.8946 159.011 2
      vertex 4.70999e-06 129.291 2
      vertex 17.4011 123.637 2
    endloop
  endfacet
  facet normal 0.309019 0.951056 0
    outer loop
      vertex 47.2406 153.029 2
      vertex 29.8395 158.683 1
      vertex 29.8395 158.683 2
    endloop
  endfacet
  facet normal 0.309019 0.951056 -0
    outer loop
      vertex 47.2406 153.029 0
      vertex 29.8395 158.683 1
      vertex 47.2406 153.029 2
    endloop
  endfacet
  facet normal 0.308999 0.951062 -0.000383143
    outer loop
      vertex 29.3735 158.834 0
      vertex 29.8395 158.683 1
      vertex 47.2406 153.029 0
    endloop
  endfacet
  facet normal 0.308255 0.951304 0
    outer loop
      vertex 29.8395 158.683 1
      vertex 29.3735 158.834 0
      vertex 29.3735 158.834 1
    endloop
  endfacet
  facet normal 0.951058 -0.309013 0
    outer loop
      vertex 35.7594 117.693 1
      vertex 47.2406 153.029 2
      vertex 35.7594 117.693 2
    endloop
  endfacet
  facet normal 0.951058 -0.309013 0
    outer loop
      vertex 47.2406 153.029 2
      vertex 35.7594 117.693 1
      vertex 47.2406 153.029 0
    endloop
  endfacet
  facet normal 0.950666 -0.310217 0
    outer loop
      vertex 35.7532 117.674 0
      vertex 35.7594 117.693 1
      vertex 35.7532 117.674 1
    endloop
  endfacet
  facet normal 0.951058 -0.309014 -2.5297e-05
    outer loop
      vertex 35.7594 117.693 1
      vertex 35.7532 117.674 0
      vertex 47.2406 153.029 0
    endloop
  endfacet
  facet normal 0.309019 0.951056 0
    outer loop
      vertex 53.6203 111.869 2
      vertex 36.2192 117.523 1
      vertex 36.2192 117.523 2
    endloop
  endfacet
  facet normal 0.309019 0.951056 -0
    outer loop
      vertex 53.6203 111.869 0
      vertex 36.2192 117.523 1
      vertex 53.6203 111.869 2
    endloop
  endfacet
  facet normal 0.308999 0.951062 -0.000383143
    outer loop
      vertex 35.7532 117.674 0
      vertex 36.2192 117.523 1
      vertex 53.6203 111.869 0
    endloop
  endfacet
  facet normal 0.308255 0.951304 0
    outer loop
      vertex 36.2192 117.523 1
      vertex 35.7532 117.674 0
      vertex 35.7532 117.674 1
    endloop
  endfacet
  facet normal 0.951057 -0.309015 0
    outer loop
      vertex 42.1391 76.5333 1
      vertex 53.6203 111.869 2
      vertex 42.1391 76.5333 2
    endloop
  endfacet
  facet normal 0.951057 -0.309015 0
    outer loop
      vertex 53.6203 111.869 2
      vertex 42.1391 76.5333 1
      vertex 53.6203 111.869 0
    endloop
  endfacet
  facet normal 0.950666 -0.310217 0
    outer loop
      vertex 42.1329 76.5143 0
      vertex 42.1391 76.5333 1
      vertex 42.1329 76.5143 1
    endloop
  endfacet
  facet normal 0.951057 -0.309016 -2.52471e-05
    outer loop
      vertex 42.1391 76.5333 1
      vertex 42.1329 76.5143 0
      vertex 53.6203 111.869 0
    endloop
  endfacet
  facet normal 0.309014 0.951057 0
    outer loop
      vertex 60 70.709 2
      vertex 42.5989 76.3629 1
      vertex 42.5989 76.3629 2
    endloop
  endfacet
  facet normal 0.309014 0.951057 -0
    outer loop
      vertex 60 70.709 0
      vertex 42.5989 76.3629 1
      vertex 60 70.709 2
    endloop
  endfacet
  facet normal 0.309013 0.951058 -1.01594e-05
    outer loop
      vertex 42.1329 76.5143 0
      vertex 42.5989 76.3629 1
      vertex 60 70.709 0
    endloop
  endfacet
  facet normal 0.308994 0.951064 0
    outer loop
      vertex 42.5989 76.3629 1
      vertex 42.1329 76.5143 0
      vertex 42.1329 76.5143 1
    endloop
  endfacet
  facet normal 0.951057 -0.309016 0
    outer loop
      vertex 37.0253 1.52318e-05 2
      vertex 60 70.709 0
      vertex 60 70.709 2
    endloop
  endfacet
  facet normal 0.951057 -0.309016 0
    outer loop
      vertex 60 70.709 0
      vertex 37.0253 1.52318e-05 2
      vertex 37.0253 1.52318e-05 0
    endloop
  endfacet
  facet normal -0.309017 -0.951057 0
    outer loop
      vertex 19.1392 5.81156 0
      vertex 37.0253 1.52318e-05 2
      vertex 19.1392 5.81156 2
    endloop
  endfacet
  facet normal -0.309017 -0.951057 -0
    outer loop
      vertex 37.0253 1.52318e-05 2
      vertex 19.1392 5.81156 0
      vertex 37.0253 1.52318e-05 0
    endloop
  endfacet
  facet normal -0.950666 0.310217 0
    outer loop
      vertex 30.6265 41.166 0
      vertex 30.6203 41.147 1
      vertex 30.6265 41.166 1
    endloop
  endfacet
  facet normal -0.951057 0.309016 -2.52551e-05
    outer loop
      vertex 19.1392 5.81156 0
      vertex 30.6203 41.147 1
      vertex 30.6265 41.166 0
    endloop
  endfacet
  facet normal -0.951057 0.309015 0
    outer loop
      vertex 19.1392 5.81156 2
      vertex 30.6203 41.147 1
      vertex 19.1392 5.81156 0
    endloop
  endfacet
  facet normal -0.951057 0.309015 0
    outer loop
      vertex 30.6203 41.147 1
      vertex 19.1392 5.81156 2
      vertex 30.6203 41.147 2
    endloop
  endfacet
  facet normal -0.309014 -0.951057 0
    outer loop
      vertex 12.7594 46.9714 2
      vertex 30.1605 41.3175 1
      vertex 30.1605 41.3175 2
    endloop
  endfacet
  facet normal -0.309014 -0.951057 0
    outer loop
      vertex 12.7594 46.9714 0
      vertex 30.1605 41.3175 1
      vertex 12.7594 46.9714 2
    endloop
  endfacet
  facet normal -0.309018 -0.951056 8.24657e-05
    outer loop
      vertex 30.6265 41.166 0
      vertex 30.1605 41.3175 1
      vertex 12.7594 46.9714 0
    endloop
  endfacet
  facet normal -0.309178 -0.951004 0
    outer loop
      vertex 30.1605 41.3175 1
      vertex 30.6265 41.166 0
      vertex 30.6265 41.166 1
    endloop
  endfacet
  facet normal -0.951144 0.308748 0
    outer loop
      vertex 24.2468 82.3259 0
      vertex 24.2406 82.3068 1
      vertex 24.2468 82.3259 1
    endloop
  endfacet
  facet normal -0.951056 0.309018 5.68786e-06
    outer loop
      vertex 12.7594 46.9714 0
      vertex 24.2406 82.3068 1
      vertex 24.2468 82.3259 0
    endloop
  endfacet
  facet normal -0.951056 0.309018 0
    outer loop
      vertex 12.7594 46.9714 2
      vertex 24.2406 82.3068 1
      vertex 12.7594 46.9714 0
    endloop
  endfacet
  facet normal -0.951056 0.309018 0
    outer loop
      vertex 24.2406 82.3068 1
      vertex 12.7594 46.9714 2
      vertex 24.2406 82.3068 2
    endloop
  endfacet
  facet normal -0.309014 -0.951057 0
    outer loop
      vertex 6.37972 88.1312 2
      vertex 23.7808 82.4773 1
      vertex 23.7808 82.4773 2
    endloop
  endfacet
  facet normal -0.309014 -0.951057 0
    outer loop
      vertex 6.37972 88.1312 0
      vertex 23.7808 82.4773 1
      vertex 6.37972 88.1312 2
    endloop
  endfacet
  facet normal -0.309014 -0.951058 -1.03206e-05
    outer loop
      vertex 24.2468 82.3259 0
      vertex 23.7808 82.4773 1
      vertex 6.37972 88.1312 0
    endloop
  endfacet
  facet normal -0.308994 -0.951064 0
    outer loop
      vertex 23.7808 82.4773 1
      vertex 24.2468 82.3259 0
      vertex 24.2468 82.3259 1
    endloop
  endfacet
  facet normal -0.950666 0.310217 0
    outer loop
      vertex 17.8671 123.486 0
      vertex 17.8609 123.467 1
      vertex 17.8671 123.486 1
    endloop
  endfacet
  facet normal -0.951057 0.309015 -2.5274e-05
    outer loop
      vertex 6.37972 88.1312 0
      vertex 17.8609 123.467 1
      vertex 17.8671 123.486 0
    endloop
  endfacet
  facet normal -0.951057 0.309014 0
    outer loop
      vertex 6.37972 88.1312 2
      vertex 17.8609 123.467 1
      vertex 6.37972 88.1312 0
    endloop
  endfacet
  facet normal -0.951057 0.309014 0
    outer loop
      vertex 17.8609 123.467 1
      vertex 6.37972 88.1312 2
      vertex 17.8609 123.467 2
    endloop
  endfacet
  facet normal -0.309019 -0.951056 0
    outer loop
      vertex 4.70999e-06 129.291 2
      vertex 17.4011 123.637 1
      vertex 17.4011 123.637 2
    endloop
  endfacet
  facet normal -0.309019 -0.951056 0
    outer loop
      vertex 4.70999e-06 129.291 0
      vertex 17.4011 123.637 1
      vertex 4.70999e-06 129.291 2
    endloop
  endfacet
  facet normal -0.308999 -0.951062 -0.000383181
    outer loop
      vertex 17.8671 123.486 0
      vertex 17.4011 123.637 1
      vertex 4.70999e-06 129.291 0
    endloop
  endfacet
  facet normal -0.308255 -0.951304 0
    outer loop
      vertex 17.4011 123.637 1
      vertex 17.8671 123.486 0
      vertex 17.8671 123.486 1
    endloop
  endfacet
  facet normal -0.951057 0.309016 0
    outer loop
      vertex 4.70999e-06 129.291 0
      vertex 22.9747 200 2
      vertex 22.9747 200 0
    endloop
  endfacet
  facet normal -0.951057 0.309016 0
    outer loop
      vertex 22.9747 200 2
      vertex 4.70999e-06 129.291 0
      vertex 4.70999e-06 129.291 2
    endloop
  endfacet
  facet normal 0.309039 0.951049 -0
    outer loop
      vertex 40.8608 194.188 0
      vertex 22.9747 200 2
      vertex 40.8608 194.188 2
    endloop
  endfacet
  facet normal 0.309039 0.951049 0
    outer loop
      vertex 22.9747 200 2
      vertex 40.8608 194.188 0
      vertex 22.9747 200 0
    endloop
  endfacet
  facet normal 0.951056 -0.309019 0
    outer loop
      vertex 29.3797 158.853 1
      vertex 40.8608 194.188 2
      vertex 29.3797 158.853 2
    endloop
  endfacet
  facet normal 0.951056 -0.309019 0
    outer loop
      vertex 40.8608 194.188 2
      vertex 29.3797 158.853 1
      vertex 40.8608 194.188 0
    endloop
  endfacet
  facet normal 0.950666 -0.310217 0
    outer loop
      vertex 29.3735 158.834 0
      vertex 29.3797 158.853 1
      vertex 29.3735 158.834 1
    endloop
  endfacet
  facet normal 0.951056 -0.309019 -2.5182e-05
    outer loop
      vertex 29.3797 158.853 1
      vertex 29.3735 158.834 0
      vertex 40.8608 194.188 0
    endloop
  endfacet
  facet normal -0.916251 0.400605 0
    outer loop
      vertex 32.1534 188.194 0
      vertex 32.2321 188.374 2
      vertex 32.2321 188.374 0
    endloop
  endfacet
  facet normal -0.916251 0.400605 0
    outer loop
      vertex 32.2321 188.374 2
      vertex 32.1534 188.194 0
      vertex 32.1534 188.194 2
    endloop
  endfacet
  facet normal -0.940725 0.33917 0
    outer loop
      vertex 32.2321 188.374 0
      vertex 32.2988 188.559 2
      vertex 32.2988 188.559 0
    endloop
  endfacet
  facet normal -0.940725 0.33917 0
    outer loop
      vertex 32.2988 188.559 2
      vertex 32.2321 188.374 0
      vertex 32.2321 188.374 2
    endloop
  endfacet
  facet normal -0.887592 0.46063 0
    outer loop
      vertex 32.0631 188.02 0
      vertex 32.1534 188.194 2
      vertex 32.1534 188.194 0
    endloop
  endfacet
  facet normal -0.887592 0.46063 0
    outer loop
      vertex 32.1534 188.194 2
      vertex 32.0631 188.02 0
      vertex 32.0631 188.02 2
    endloop
  endfacet
  facet normal 0.300741 -0.953706 0
    outer loop
      vertex 28.4442 192.314 0
      vertex 28.6313 192.373 2
      vertex 28.4442 192.314 2
    endloop
  endfacet
  facet normal 0.300741 -0.953706 0
    outer loop
      vertex 28.6313 192.373 2
      vertex 28.4442 192.314 0
      vertex 28.6313 192.373 0
    endloop
  endfacet
  facet normal 0.239418 -0.970917 0
    outer loop
      vertex 28.6313 192.373 0
      vertex 28.8219 192.42 2
      vertex 28.6313 192.373 2
    endloop
  endfacet
  facet normal 0.239418 -0.970917 0
    outer loop
      vertex 28.8219 192.42 2
      vertex 28.6313 192.373 0
      vertex 28.8219 192.42 0
    endloop
  endfacet
  facet normal -0.984553 -0.175088 0
    outer loop
      vertex 32.4146 189.916 0
      vertex 32.3801 190.11 2
      vertex 32.3801 190.11 0
    endloop
  endfacet
  facet normal -0.984553 -0.175088 0
    outer loop
      vertex 32.3801 190.11 2
      vertex 32.4146 189.916 0
      vertex 32.4146 189.916 2
    endloop
  endfacet
  facet normal -0.931258 -0.364361 0
    outer loop
      vertex 32.2736 190.487 0
      vertex 32.202 190.67 2
      vertex 32.202 190.67 0
    endloop
  endfacet
  facet normal -0.931258 -0.364361 0
    outer loop
      vertex 32.202 190.67 2
      vertex 32.2736 190.487 0
      vertex 32.2736 190.487 2
    endloop
  endfacet
  facet normal 0.67318 0.739478 -0
    outer loop
      vertex 27.4973 187.205 0
      vertex 27.3523 187.337 2
      vertex 27.4973 187.205 2
    endloop
  endfacet
  facet normal 0.67318 0.739478 0
    outer loop
      vertex 27.3523 187.337 2
      vertex 27.4973 187.205 0
      vertex 27.3523 187.337 0
    endloop
  endfacet
  facet normal -0.856141 0.516742 0
    outer loop
      vertex 31.9617 187.852 0
      vertex 32.0631 188.02 2
      vertex 32.0631 188.02 0
    endloop
  endfacet
  facet normal -0.856141 0.516742 0
    outer loop
      vertex 32.0631 188.02 2
      vertex 31.9617 187.852 0
      vertex 31.9617 187.852 2
    endloop
  endfacet
  facet normal 0.764448 0.644685 0
    outer loop
      vertex 27.2162 187.478 2
      vertex 27.0897 187.628 0
      vertex 27.0897 187.628 2
    endloop
  endfacet
  facet normal 0.764448 0.644685 0
    outer loop
      vertex 27.0897 187.628 0
      vertex 27.2162 187.478 2
      vertex 27.2162 187.478 0
    endloop
  endfacet
  facet normal -0.305367 0.952235 0
    outer loop
      vertex 30.4471 186.658 0
      vertex 30.26 186.598 2
      vertex 30.4471 186.658 2
    endloop
  endfacet
  facet normal -0.305367 0.952235 0
    outer loop
      vertex 30.26 186.598 2
      vertex 30.4471 186.658 0
      vertex 30.26 186.598 0
    endloop
  endfacet
  facet normal -0.625563 -0.780174 0
    outer loop
      vertex 31.2406 191.89 0
      vertex 31.394 191.767 2
      vertex 31.2406 191.89 2
    endloop
  endfacet
  facet normal -0.625563 -0.780174 -0
    outer loop
      vertex 31.394 191.767 2
      vertex 31.2406 191.89 0
      vertex 31.394 191.767 0
    endloop
  endfacet
  facet normal -0.515021 -0.857178 0
    outer loop
      vertex 30.9115 192.103 0
      vertex 31.0796 192.002 2
      vertex 30.9115 192.103 2
    endloop
  endfacet
  facet normal -0.515021 -0.857178 -0
    outer loop
      vertex 31.0796 192.002 2
      vertex 30.9115 192.103 0
      vertex 31.0796 192.002 0
    endloop
  endfacet
  facet normal 0.483696 -0.875236 0
    outer loop
      vertex 27.9118 192.064 0
      vertex 28.0837 192.159 2
      vertex 27.9118 192.064 2
    endloop
  endfacet
  facet normal 0.483696 -0.875236 0
    outer loop
      vertex 28.0837 192.159 2
      vertex 27.9118 192.064 0
      vertex 28.0837 192.159 0
    endloop
  endfacet
  facet normal 0.806889 0.590703 0
    outer loop
      vertex 27.0897 187.628 2
      vertex 26.9733 187.787 0
      vertex 26.9733 187.787 2
    endloop
  endfacet
  facet normal 0.806889 0.590703 0
    outer loop
      vertex 26.9733 187.787 0
      vertex 27.0897 187.628 2
      vertex 27.0897 187.628 0
    endloop
  endfacet
  facet normal -0.782601 0.622524 0
    outer loop
      vertex 31.7269 187.537 0
      vertex 31.8494 187.691 2
      vertex 31.8494 187.691 0
    endloop
  endfacet
  facet normal -0.782601 0.622524 0
    outer loop
      vertex 31.8494 187.691 2
      vertex 31.7269 187.537 0
      vertex 31.7269 187.537 2
    endloop
  endfacet
  facet normal 0.33666 0.941626 -0
    outer loop
      vertex 28.5186 186.633 0
      vertex 28.334 186.699 2
      vertex 28.5186 186.633 2
    endloop
  endfacet
  facet normal 0.33666 0.941626 0
    outer loop
      vertex 28.334 186.699 2
      vertex 28.5186 186.633 0
      vertex 28.334 186.699 0
    endloop
  endfacet
  facet normal -0.976794 0.214182 0
    outer loop
      vertex 32.3533 188.747 0
      vertex 32.3954 188.939 2
      vertex 32.3954 188.939 0
    endloop
  endfacet
  facet normal -0.976794 0.214182 0
    outer loop
      vertex 32.3954 188.939 2
      vertex 32.3533 188.747 0
      vertex 32.3533 188.747 2
    endloop
  endfacet
  facet normal -0.0458467 0.998948 0
    outer loop
      vertex 29.681 186.495 0
      vertex 29.4849 186.486 2
      vertex 29.681 186.495 2
    endloop
  endfacet
  facet normal -0.0458467 0.998948 0
    outer loop
      vertex 29.4849 186.486 2
      vertex 29.681 186.495 0
      vertex 29.4849 186.486 0
    endloop
  endfacet
  facet normal 0.719498 0.694494 0
    outer loop
      vertex 27.3523 187.337 2
      vertex 27.2162 187.478 0
      vertex 27.2162 187.478 2
    endloop
  endfacet
  facet normal 0.719498 0.694494 0
    outer loop
      vertex 27.2162 187.478 0
      vertex 27.3523 187.337 2
      vertex 27.3523 187.337 0
    endloop
  endfacet
  facet normal -0.996433 0.0843917 0
    outer loop
      vertex 32.4249 189.133 0
      vertex 32.4415 189.329 2
      vertex 32.4415 189.329 0
    endloop
  endfacet
  facet normal -0.996433 0.0843917 0
    outer loop
      vertex 32.4415 189.329 2
      vertex 32.4249 189.133 0
      vertex 32.4249 189.133 2
    endloop
  endfacet
  facet normal -0.571064 -0.820905 0
    outer loop
      vertex 31.0796 192.002 0
      vertex 31.2406 191.89 2
      vertex 31.0796 192.002 2
    endloop
  endfacet
  facet normal -0.571064 -0.820905 -0
    outer loop
      vertex 31.2406 191.89 2
      vertex 31.0796 192.002 0
      vertex 31.2406 191.89 0
    endloop
  endfacet
  facet normal 0.458799 0.88854 -0
    outer loop
      vertex 28.1541 186.778 0
      vertex 27.9798 186.868 2
      vertex 28.1541 186.778 2
    endloop
  endfacet
  facet normal 0.458799 0.88854 0
    outer loop
      vertex 27.9798 186.868 2
      vertex 28.1541 186.778 0
      vertex 27.9798 186.868 0
    endloop
  endfacet
  facet normal 0.953073 0.302741 0
    outer loop
      vertex 26.6177 188.484 2
      vertex 26.5583 188.671 0
      vertex 26.5583 188.671 2
    endloop
  endfacet
  facet normal 0.953073 0.302741 0
    outer loop
      vertex 26.5583 188.671 0
      vertex 26.6177 188.484 2
      vertex 26.6177 188.484 0
    endloop
  endfacet
  facet normal -0.67318 -0.739478 0
    outer loop
      vertex 31.394 191.767 0
      vertex 31.539 191.635 2
      vertex 31.394 191.767 2
    endloop
  endfacet
  facet normal -0.67318 -0.739478 -0
    outer loop
      vertex 31.539 191.635 2
      vertex 31.394 191.767 0
      vertex 31.539 191.635 0
    endloop
  endfacet
  facet normal 0.888667 -0.458552 0
    outer loop
      vertex 26.7379 190.777 2
      vertex 26.8282 190.952 0
      vertex 26.8282 190.952 2
    endloop
  endfacet
  facet normal 0.888667 -0.458552 0
    outer loop
      vertex 26.8282 190.952 0
      vertex 26.7379 190.777 2
      vertex 26.7379 190.777 0
    endloop
  endfacet
  facet normal 0.738717 -0.674016 0
    outer loop
      vertex 27.1644 191.434 2
      vertex 27.2967 191.579 0
      vertex 27.2967 191.579 2
    endloop
  endfacet
  facet normal 0.738717 -0.674016 0
    outer loop
      vertex 27.2967 191.579 0
      vertex 27.1644 191.434 2
      vertex 27.1644 191.434 0
    endloop
  endfacet
  facet normal -0.960456 0.27843 0
    outer loop
      vertex 32.2988 188.559 0
      vertex 32.3533 188.747 2
      vertex 32.3533 188.747 0
    endloop
  endfacet
  facet normal -0.960456 0.27843 0
    outer loop
      vertex 32.3533 188.747 2
      vertex 32.2988 188.559 0
      vertex 32.2988 188.559 2
    endloop
  endfacet
  facet normal 0.905728 0.42386 0
    outer loop
      vertex 26.7726 188.124 2
      vertex 26.6893 188.302 0
      vertex 26.6893 188.302 2
    endloop
  endfacet
  facet normal 0.905728 0.42386 0
    outer loop
      vertex 26.6893 188.302 0
      vertex 26.7726 188.124 2
      vertex 26.7726 188.124 0
    endloop
  endfacet
  facet normal 0.112053 -0.993702 0
    outer loop
      vertex 29.0152 192.455 0
      vertex 29.2103 192.477 2
      vertex 29.0152 192.455 2
    endloop
  endfacet
  facet normal 0.112053 -0.993702 0
    outer loop
      vertex 29.2103 192.477 2
      vertex 29.0152 192.455 0
      vertex 29.2103 192.477 0
    endloop
  endfacet
  facet normal -0.642941 0.765916 0
    outer loop
      vertex 31.453 187.256 0
      vertex 31.3029 187.13 2
      vertex 31.453 187.256 2
    endloop
  endfacet
  facet normal -0.642941 0.765916 0
    outer loop
      vertex 31.3029 187.13 2
      vertex 31.453 187.256 0
      vertex 31.3029 187.13 0
    endloop
  endfacet
  facet normal 0.996396 -0.0848214 0
    outer loop
      vertex 26.4498 189.643 2
      vertex 26.4664 189.838 0
      vertex 26.4664 189.838 2
    endloop
  endfacet
  facet normal 0.996396 -0.0848214 0
    outer loop
      vertex 26.4664 189.838 0
      vertex 26.4498 189.643 2
      vertex 26.4498 189.643 0
    endloop
  endfacet
  facet normal -0.820188 0.572094 0
    outer loop
      vertex 31.8494 187.691 0
      vertex 31.9617 187.852 2
      vertex 31.9617 187.852 0
    endloop
  endfacet
  facet normal -0.820188 0.572094 0
    outer loop
      vertex 31.9617 187.852 2
      vertex 31.8494 187.691 0
      vertex 31.8494 187.691 2
    endloop
  endfacet
  facet normal -0.483696 0.875236 0
    outer loop
      vertex 30.9795 186.908 0
      vertex 30.8076 186.813 2
      vertex 30.9795 186.908 2
    endloop
  endfacet
  facet normal -0.483696 0.875236 0
    outer loop
      vertex 30.8076 186.813 2
      vertex 30.9795 186.908 0
      vertex 30.8076 186.813 0
    endloop
  endfacet
  facet normal -0.970621 -0.240612 0
    outer loop
      vertex 32.3801 190.11 0
      vertex 32.333 190.3 2
      vertex 32.333 190.3 0
    endloop
  endfacet
  facet normal -0.970621 -0.240612 0
    outer loop
      vertex 32.333 190.3 2
      vertex 32.3801 190.11 0
      vertex 32.3801 190.11 2
    endloop
  endfacet
  facet normal -0.53595 0.844249 0
    outer loop
      vertex 31.1449 187.013 0
      vertex 30.9795 186.908 2
      vertex 31.1449 187.013 2
    endloop
  endfacet
  facet normal -0.53595 0.844249 0
    outer loop
      vertex 30.9795 186.908 2
      vertex 31.1449 187.013 0
      vertex 30.9795 186.908 0
    endloop
  endfacet
  facet normal -0.173233 0.984881 0
    outer loop
      vertex 30.0694 186.551 0
      vertex 29.8761 186.517 2
      vertex 30.0694 186.551 2
    endloop
  endfacet
  facet normal -0.173233 0.984881 0
    outer loop
      vertex 29.8761 186.517 2
      vertex 30.0694 186.551 0
      vertex 29.8761 186.517 0
    endloop
  endfacet
  facet normal 0.571064 0.820905 -0
    outer loop
      vertex 27.8117 186.97 0
      vertex 27.6507 187.082 2
      vertex 27.8117 186.97 2
    endloop
  endfacet
  facet normal 0.571064 0.820905 0
    outer loop
      vertex 27.6507 187.082 2
      vertex 27.8117 186.97 0
      vertex 27.6507 187.082 0
    endloop
  endfacet
  facet normal 0.940136 -0.340799 0
    outer loop
      vertex 26.5925 190.413 2
      vertex 26.6592 190.597 0
      vertex 26.6592 190.597 2
    endloop
  endfacet
  facet normal 0.940136 -0.340799 0
    outer loop
      vertex 26.6592 190.597 0
      vertex 26.5925 190.413 2
      vertex 26.5925 190.413 0
    endloop
  endfacet
  facet normal 0.970915 0.239425 0
    outer loop
      vertex 26.5583 188.671 2
      vertex 26.5112 188.862 0
      vertex 26.5112 188.862 2
    endloop
  endfacet
  facet normal 0.970915 0.239425 0
    outer loop
      vertex 26.5112 188.862 0
      vertex 26.5583 188.671 2
      vertex 26.5583 188.671 0
    endloop
  endfacet
  facet normal -0.993809 -0.111103 0
    outer loop
      vertex 32.4364 189.721 0
      vertex 32.4146 189.916 2
      vertex 32.4146 189.916 0
    endloop
  endfacet
  facet normal -0.993809 -0.111103 0
    outer loop
      vertex 32.4146 189.916 2
      vertex 32.4364 189.721 0
      vertex 32.4364 189.721 2
    endloop
  endfacet
  facet normal -0.595106 0.803647 0
    outer loop
      vertex 31.3029 187.13 0
      vertex 31.1449 187.013 2
      vertex 31.3029 187.13 2
    endloop
  endfacet
  facet normal -0.595106 0.803647 0
    outer loop
      vertex 31.1449 187.013 2
      vertex 31.3029 187.13 0
      vertex 31.1449 187.013 0
    endloop
  endfacet
  facet normal -0.805107 -0.59313 0
    outer loop
      vertex 31.918 191.185 0
      vertex 31.8016 191.343 2
      vertex 31.8016 191.343 0
    endloop
  endfacet
  facet normal -0.805107 -0.59313 0
    outer loop
      vertex 31.8016 191.343 2
      vertex 31.918 191.185 0
      vertex 31.918 191.185 2
    endloop
  endfacet
  facet normal 0.0203727 0.999792 -0
    outer loop
      vertex 29.4849 186.486 0
      vertex 29.2886 186.49 2
      vertex 29.4849 186.486 2
    endloop
  endfacet
  facet normal 0.0203727 0.999792 0
    outer loop
      vertex 29.2886 186.49 2
      vertex 29.4849 186.486 0
      vertex 29.2886 186.49 0
    endloop
  endfacet
  facet normal -0.999802 0.019894 0
    outer loop
      vertex 32.4415 189.329 0
      vertex 32.4454 189.525 2
      vertex 32.4454 189.525 0
    endloop
  endfacet
  facet normal -0.999802 0.019894 0
    outer loop
      vertex 32.4454 189.525 2
      vertex 32.4415 189.329 0
      vertex 32.4415 189.329 2
    endloop
  endfacet
  facet normal 0.999802 -0.019894 0
    outer loop
      vertex 26.4459 189.447 2
      vertex 26.4498 189.643 0
      vertex 26.4498 189.643 2
    endloop
  endfacet
  facet normal 0.999802 -0.019894 0
    outer loop
      vertex 26.4498 189.643 0
      vertex 26.4459 189.447 2
      vertex 26.4459 189.447 0
    endloop
  endfacet
  facet normal -0.239418 0.970917 0
    outer loop
      vertex 30.26 186.598 0
      vertex 30.0694 186.551 2
      vertex 30.26 186.598 2
    endloop
  endfacet
  facet normal -0.239418 0.970917 0
    outer loop
      vertex 30.0694 186.551 2
      vertex 30.26 186.598 0
      vertex 30.0694 186.551 0
    endloop
  endfacet
  facet normal 0.625563 0.780174 -0
    outer loop
      vertex 27.6507 187.082 0
      vertex 27.4973 187.205 2
      vertex 27.6507 187.082 2
    endloop
  endfacet
  facet normal 0.625563 0.780174 0
    outer loop
      vertex 27.4973 187.205 2
      vertex 27.6507 187.082 0
      vertex 27.4973 187.205 0
    endloop
  endfacet
  facet normal 0.591806 -0.80608 0
    outer loop
      vertex 27.5884 191.842 0
      vertex 27.7464 191.958 2
      vertex 27.5884 191.842 2
    endloop
  endfacet
  facet normal 0.591806 -0.80608 0
    outer loop
      vertex 27.7464 191.958 2
      vertex 27.5884 191.842 0
      vertex 27.7464 191.958 0
    endloop
  endfacet
  facet normal 0.96085 -0.27707 0
    outer loop
      vertex 26.538 190.224 2
      vertex 26.5925 190.413 0
      vertex 26.5925 190.413 2
    endloop
  endfacet
  facet normal 0.96085 -0.27707 0
    outer loop
      vertex 26.5925 190.413 0
      vertex 26.538 190.224 2
      vertex 26.538 190.224 0
    endloop
  endfacet
  facet normal -0.362053 0.932158 0
    outer loop
      vertex 30.6299 186.729 0
      vertex 30.4471 186.658 2
      vertex 30.6299 186.729 2
    endloop
  endfacet
  facet normal -0.362053 0.932158 0
    outer loop
      vertex 30.4471 186.658 2
      vertex 30.6299 186.729 0
      vertex 30.4471 186.658 0
    endloop
  endfacet
  facet normal -0.721946 -0.69195 0
    outer loop
      vertex 31.6751 191.493 0
      vertex 31.539 191.635 2
      vertex 31.539 191.635 0
    endloop
  endfacet
  facet normal -0.721946 -0.69195 0
    outer loop
      vertex 31.539 191.635 2
      vertex 31.6751 191.493 0
      vertex 31.6751 191.493 2
    endloop
  endfacet
  facet normal -0.692701 0.721224 0
    outer loop
      vertex 31.5946 187.392 0
      vertex 31.453 187.256 2
      vertex 31.5946 187.392 2
    endloop
  endfacet
  facet normal -0.692701 0.721224 0
    outer loop
      vertex 31.453 187.256 2
      vertex 31.5946 187.392 0
      vertex 31.453 187.256 0
    endloop
  endfacet
  facet normal 0.0458467 -0.998948 0
    outer loop
      vertex 29.2103 192.477 0
      vertex 29.4064 192.486 2
      vertex 29.2103 192.477 2
    endloop
  endfacet
  facet normal 0.0458467 -0.998948 0
    outer loop
      vertex 29.4064 192.486 2
      vertex 29.2103 192.477 0
      vertex 29.4064 192.486 0
    endloop
  endfacet
  facet normal 0.279961 0.960011 -0
    outer loop
      vertex 28.7072 186.578 0
      vertex 28.5186 186.633 2
      vertex 28.7072 186.578 2
    endloop
  endfacet
  facet normal 0.279961 0.960011 0
    outer loop
      vertex 28.5186 186.633 2
      vertex 28.7072 186.578 0
      vertex 28.5186 186.633 0
    endloop
  endfacet
  facet normal -0.462809 -0.886458 0
    outer loop
      vertex 30.7372 192.194 0
      vertex 30.9115 192.103 2
      vertex 30.7372 192.194 2
    endloop
  endfacet
  facet normal -0.462809 -0.886458 -0
    outer loop
      vertex 30.9115 192.103 2
      vertex 30.7372 192.194 0
      vertex 30.9115 192.103 0
    endloop
  endfacet
  facet normal 0.875786 0.4827 0
    outer loop
      vertex 26.8674 187.952 2
      vertex 26.7726 188.124 0
      vertex 26.7726 188.124 2
    endloop
  endfacet
  facet normal 0.875786 0.4827 0
    outer loop
      vertex 26.7726 188.124 0
      vertex 26.8674 187.952 2
      vertex 26.8674 187.952 0
    endloop
  endfacet
  facet normal 0.214016 0.97683 -0
    outer loop
      vertex 28.8989 186.536 0
      vertex 28.7072 186.578 2
      vertex 28.8989 186.536 2
    endloop
  endfacet
  facet normal 0.214016 0.97683 0
    outer loop
      vertex 28.7072 186.578 2
      vertex 28.8989 186.536 0
      vertex 28.7072 186.578 0
    endloop
  endfacet
  facet normal 0.423192 -0.90604 0
    outer loop
      vertex 28.0837 192.159 0
      vertex 28.2614 192.242 2
      vertex 28.0837 192.159 2
    endloop
  endfacet
  facet normal 0.423192 -0.90604 0
    outer loop
      vertex 28.2614 192.242 2
      vertex 28.0837 192.159 0
      vertex 28.2614 192.242 0
    endloop
  endfacet
  facet normal 0.988635 -0.150334 0
    outer loop
      vertex 26.4664 189.838 2
      vertex 26.4959 190.032 0
      vertex 26.4959 190.032 2
    endloop
  endfacet
  facet normal 0.988635 -0.150334 0
    outer loop
      vertex 26.4959 190.032 0
      vertex 26.4664 189.838 2
      vertex 26.4664 189.838 0
    endloop
  endfacet
  facet normal 0.518753 0.854924 -0
    outer loop
      vertex 27.9798 186.868 0
      vertex 27.8117 186.97 2
      vertex 27.9798 186.868 2
    endloop
  endfacet
  facet normal 0.518753 0.854924 0
    outer loop
      vertex 27.8117 186.97 2
      vertex 27.9798 186.868 0
      vertex 27.8117 186.97 0
    endloop
  endfacet
  facet normal 0.856141 -0.516742 0
    outer loop
      vertex 26.8282 190.952 2
      vertex 26.9296 191.12 0
      vertex 26.9296 191.12 2
    endloop
  endfacet
  facet normal 0.856141 -0.516742 0
    outer loop
      vertex 26.9296 191.12 0
      vertex 26.8282 190.952 2
      vertex 26.8282 190.952 0
    endloop
  endfacet
  facet normal 0.976794 -0.214182 0
    outer loop
      vertex 26.4959 190.032 2
      vertex 26.538 190.224 0
      vertex 26.538 190.224 2
    endloop
  endfacet
  facet normal 0.976794 -0.214182 0
    outer loop
      vertex 26.538 190.224 0
      vertex 26.4959 190.032 2
      vertex 26.4959 190.032 0
    endloop
  endfacet
  facet normal -0.397793 -0.917475 0
    outer loop
      vertex 30.5573 192.272 0
      vertex 30.7372 192.194 2
      vertex 30.5573 192.272 2
    endloop
  endfacet
  facet normal -0.397793 -0.917475 -0
    outer loop
      vertex 30.7372 192.194 2
      vertex 30.5573 192.272 0
      vertex 30.7372 192.194 0
    endloop
  endfacet
  facet normal -0.764448 -0.644685 0
    outer loop
      vertex 31.8016 191.343 0
      vertex 31.6751 191.493 2
      vertex 31.6751 191.493 0
    endloop
  endfacet
  facet normal -0.764448 -0.644685 0
    outer loop
      vertex 31.6751 191.493 2
      vertex 31.8016 191.343 0
      vertex 31.8016 191.343 2
    endloop
  endfacet
  facet normal -0.998947 -0.04587 0
    outer loop
      vertex 32.4454 189.525 0
      vertex 32.4364 189.721 2
      vertex 32.4364 189.721 0
    endloop
  endfacet
  facet normal -0.998947 -0.04587 0
    outer loop
      vertex 32.4364 189.721 2
      vertex 32.4454 189.525 0
      vertex 32.4454 189.525 2
    endloop
  endfacet
  facet normal 0.645919 -0.763406 0
    outer loop
      vertex 27.4383 191.715 0
      vertex 27.5884 191.842 2
      vertex 27.4383 191.715 2
    endloop
  endfacet
  facet normal 0.645919 -0.763406 0
    outer loop
      vertex 27.5884 191.842 2
      vertex 27.4383 191.715 0
      vertex 27.5884 191.842 0
    endloop
  endfacet
  facet normal -0.905728 -0.42386 0
    outer loop
      vertex 32.202 190.67 0
      vertex 32.1187 190.848 2
      vertex 32.1187 190.848 0
    endloop
  endfacet
  facet normal -0.905728 -0.42386 0
    outer loop
      vertex 32.1187 190.848 2
      vertex 32.202 190.67 0
      vertex 32.202 190.67 2
    endloop
  endfacet
  facet normal -0.988635 0.150334 0
    outer loop
      vertex 32.3954 188.939 0
      vertex 32.4249 189.133 2
      vertex 32.4249 189.133 0
    endloop
  endfacet
  facet normal -0.988635 0.150334 0
    outer loop
      vertex 32.4249 189.133 2
      vertex 32.3954 188.939 0
      vertex 32.3954 188.939 2
    endloop
  endfacet
  facet normal 0.930577 0.366095 0
    outer loop
      vertex 26.6893 188.302 2
      vertex 26.6177 188.484 0
      vertex 26.6177 188.484 2
    endloop
  endfacet
  facet normal 0.930577 0.366095 0
    outer loop
      vertex 26.6177 188.484 0
      vertex 26.6893 188.302 2
      vertex 26.6893 188.302 0
    endloop
  endfacet
  facet normal -0.427364 0.904079 0
    outer loop
      vertex 30.8076 186.813 0
      vertex 30.6299 186.729 2
      vertex 30.8076 186.813 2
    endloop
  endfacet
  facet normal -0.427364 0.904079 0
    outer loop
      vertex 30.6299 186.729 2
      vertex 30.8076 186.813 0
      vertex 30.6299 186.729 0
    endloop
  endfacet
  facet normal 0.539574 -0.841938 0
    outer loop
      vertex 27.7464 191.958 0
      vertex 27.9118 192.064 2
      vertex 27.7464 191.958 2
    endloop
  endfacet
  facet normal 0.539574 -0.841938 0
    outer loop
      vertex 27.9118 192.064 2
      vertex 27.7464 191.958 0
      vertex 27.9118 192.064 0
    endloop
  endfacet
  facet normal 0.147767 0.989022 -0
    outer loop
      vertex 29.093 186.507 0
      vertex 28.8989 186.536 2
      vertex 29.093 186.507 2
    endloop
  endfacet
  facet normal 0.147767 0.989022 0
    outer loop
      vertex 28.8989 186.536 2
      vertex 29.093 186.507 0
      vertex 28.8989 186.536 0
    endloop
  endfacet
  facet normal 0.402073 0.915607 -0
    outer loop
      vertex 28.334 186.699 0
      vertex 28.1541 186.778 2
      vertex 28.334 186.699 2
    endloop
  endfacet
  facet normal 0.402073 0.915607 0
    outer loop
      vertex 28.1541 186.778 2
      vertex 28.334 186.699 0
      vertex 28.1541 186.778 0
    endloop
  endfacet
  facet normal -0.875786 -0.4827 0
    outer loop
      vertex 32.1187 190.848 0
      vertex 32.0239 191.02 2
      vertex 32.0239 191.02 0
    endloop
  endfacet
  facet normal -0.875786 -0.4827 0
    outer loop
      vertex 32.0239 191.02 2
      vertex 32.1187 190.848 0
      vertex 32.1187 190.848 2
    endloop
  endfacet
  facet normal -0.147842 -0.989011 0
    outer loop
      vertex 29.7983 192.465 0
      vertex 29.9923 192.436 2
      vertex 29.7983 192.465 2
    endloop
  endfacet
  facet normal -0.147842 -0.989011 -0
    outer loop
      vertex 29.9923 192.436 2
      vertex 29.7983 192.465 0
      vertex 29.9923 192.436 0
    endloop
  endfacet
  facet normal 0.0865857 0.996244 -0
    outer loop
      vertex 29.2886 186.49 0
      vertex 29.093 186.507 2
      vertex 29.2886 186.49 2
    endloop
  endfacet
  facet normal 0.0865857 0.996244 0
    outer loop
      vertex 29.093 186.507 2
      vertex 29.2886 186.49 0
      vertex 29.093 186.507 0
    endloop
  endfacet
  facet normal 0.841576 0.540139 0
    outer loop
      vertex 26.9733 187.787 2
      vertex 26.8674 187.952 0
      vertex 26.8674 187.952 2
    endloop
  endfacet
  facet normal 0.841576 0.540139 0
    outer loop
      vertex 26.8674 187.952 0
      vertex 26.9733 187.787 2
      vertex 26.9733 187.787 0
    endloop
  endfacet
  facet normal 0.984396 0.175967 0
    outer loop
      vertex 26.5112 188.862 2
      vertex 26.4767 189.055 0
      vertex 26.4767 189.055 2
    endloop
  endfacet
  facet normal 0.984396 0.175967 0
    outer loop
      vertex 26.4767 189.055 0
      vertex 26.5112 188.862 2
      vertex 26.5112 188.862 0
    endloop
  endfacet
  facet normal 0.916251 -0.400605 0
    outer loop
      vertex 26.6592 190.597 2
      vertex 26.7379 190.777 0
      vertex 26.7379 190.777 2
    endloop
  endfacet
  facet normal 0.916251 -0.400605 0
    outer loop
      vertex 26.7379 190.777 0
      vertex 26.6592 190.597 2
      vertex 26.6592 190.597 0
    endloop
  endfacet
  facet normal -0.218762 -0.975778 0
    outer loop
      vertex 29.9923 192.436 0
      vertex 30.1841 192.393 2
      vertex 29.9923 192.436 2
    endloop
  endfacet
  facet normal -0.218762 -0.975778 -0
    outer loop
      vertex 30.1841 192.393 2
      vertex 29.9923 192.436 0
      vertex 30.1841 192.393 0
    endloop
  endfacet
  facet normal 0.178169 -0.984 0
    outer loop
      vertex 28.8219 192.42 0
      vertex 29.0152 192.455 2
      vertex 28.8219 192.42 2
    endloop
  endfacet
  facet normal 0.178169 -0.984 0
    outer loop
      vertex 29.0152 192.455 2
      vertex 28.8219 192.42 0
      vertex 29.0152 192.455 0
    endloop
  endfacet
  facet normal -0.841576 -0.540139 0
    outer loop
      vertex 32.0239 191.02 0
      vertex 31.918 191.185 2
      vertex 31.918 191.185 0
    endloop
  endfacet
  facet normal -0.841576 -0.540139 0
    outer loop
      vertex 31.918 191.185 2
      vertex 32.0239 191.02 0
      vertex 32.0239 191.02 2
    endloop
  endfacet
  facet normal -0.112053 0.993702 0
    outer loop
      vertex 29.8761 186.517 0
      vertex 29.681 186.495 2
      vertex 29.8761 186.517 2
    endloop
  endfacet
  facet normal -0.112053 0.993702 0
    outer loop
      vertex 29.681 186.495 2
      vertex 29.8761 186.517 0
      vertex 29.681 186.495 0
    endloop
  endfacet
  facet normal -0.738717 0.674016 0
    outer loop
      vertex 31.5946 187.392 0
      vertex 31.7269 187.537 2
      vertex 31.7269 187.537 0
    endloop
  endfacet
  facet normal -0.738717 0.674016 0
    outer loop
      vertex 31.7269 187.537 2
      vertex 31.5946 187.392 0
      vertex 31.5946 187.392 2
    endloop
  endfacet
  facet normal -0.953073 -0.302741 0
    outer loop
      vertex 32.333 190.3 0
      vertex 32.2736 190.487 2
      vertex 32.2736 190.487 0
    endloop
  endfacet
  facet normal -0.953073 -0.302741 0
    outer loop
      vertex 32.2736 190.487 2
      vertex 32.333 190.3 0
      vertex 32.333 190.3 2
    endloop
  endfacet
  facet normal 0.366471 -0.930429 0
    outer loop
      vertex 28.2614 192.242 0
      vertex 28.4442 192.314 2
      vertex 28.2614 192.242 2
    endloop
  endfacet
  facet normal 0.366471 -0.930429 0
    outer loop
      vertex 28.4442 192.314 2
      vertex 28.2614 192.242 0
      vertex 28.4442 192.314 0
    endloop
  endfacet
  facet normal -0.0865857 -0.996244 0
    outer loop
      vertex 29.6027 192.482 0
      vertex 29.7983 192.465 2
      vertex 29.6027 192.482 2
    endloop
  endfacet
  facet normal -0.0865857 -0.996244 -0
    outer loop
      vertex 29.7983 192.465 2
      vertex 29.6027 192.482 0
      vertex 29.7983 192.465 0
    endloop
  endfacet
  facet normal -0.27526 -0.96137 0
    outer loop
      vertex 30.1841 192.393 0
      vertex 30.3727 192.339 2
      vertex 30.1841 192.393 2
    endloop
  endfacet
  facet normal -0.27526 -0.96137 -0
    outer loop
      vertex 30.3727 192.339 2
      vertex 30.1841 192.393 0
      vertex 30.3727 192.339 0
    endloop
  endfacet
  facet normal -0.341171 -0.940001 0
    outer loop
      vertex 30.3727 192.339 0
      vertex 30.5573 192.272 2
      vertex 30.3727 192.339 2
    endloop
  endfacet
  facet normal -0.341171 -0.940001 -0
    outer loop
      vertex 30.5573 192.272 2
      vertex 30.3727 192.339 0
      vertex 30.5573 192.272 0
    endloop
  endfacet
  facet normal 0.78062 -0.625006 0
    outer loop
      vertex 27.0419 191.281 2
      vertex 27.1644 191.434 0
      vertex 27.1644 191.434 2
    endloop
  endfacet
  facet normal 0.78062 -0.625006 0
    outer loop
      vertex 27.1644 191.434 0
      vertex 27.0419 191.281 2
      vertex 27.0419 191.281 0
    endloop
  endfacet
  facet normal -0.0203727 -0.999792 0
    outer loop
      vertex 29.4064 192.486 0
      vertex 29.6027 192.482 2
      vertex 29.4064 192.486 2
    endloop
  endfacet
  facet normal -0.0203727 -0.999792 -0
    outer loop
      vertex 29.6027 192.482 2
      vertex 29.4064 192.486 0
      vertex 29.6027 192.482 0
    endloop
  endfacet
  facet normal 0.820188 -0.572094 0
    outer loop
      vertex 26.9296 191.12 2
      vertex 27.0419 191.281 0
      vertex 27.0419 191.281 2
    endloop
  endfacet
  facet normal 0.820188 -0.572094 0
    outer loop
      vertex 27.0419 191.281 0
      vertex 26.9296 191.12 2
      vertex 26.9296 191.12 0
    endloop
  endfacet
  facet normal 0.692701 -0.721224 0
    outer loop
      vertex 27.2967 191.579 0
      vertex 27.4383 191.715 2
      vertex 27.2967 191.579 2
    endloop
  endfacet
  facet normal 0.692701 -0.721224 0
    outer loop
      vertex 27.4383 191.715 2
      vertex 27.2967 191.579 0
      vertex 27.4383 191.715 0
    endloop
  endfacet
  facet normal 0.998958 0.0456377 0
    outer loop
      vertex 26.4549 189.25 2
      vertex 26.4459 189.447 0
      vertex 26.4459 189.447 2
    endloop
  endfacet
  facet normal 0.998958 0.0456377 0
    outer loop
      vertex 26.4459 189.447 0
      vertex 26.4549 189.25 2
      vertex 26.4549 189.25 0
    endloop
  endfacet
  facet normal 0.993809 0.111103 0
    outer loop
      vertex 26.4767 189.055 2
      vertex 26.4549 189.25 0
      vertex 26.4549 189.25 2
    endloop
  endfacet
  facet normal 0.993809 0.111103 0
    outer loop
      vertex 26.4549 189.25 0
      vertex 26.4767 189.055 2
      vertex 26.4767 189.055 0
    endloop
  endfacet
endsolid OpenSCAD_Model
