solid OpenSCAD_Model
  facet normal 1 -0 0
    outer loop
      vertex 64.3 -64.3 8
      vertex 64.3 64.3 0
      vertex 64.3 64.3 8
    endloop
  endfacet
  facet normal 1 0 0
    outer loop
      vertex 64.3 64.3 0
      vertex 64.3 -64.3 8
      vertex 64.3 -64.3 0
    endloop
  endfacet
  facet normal 0 0 1
    outer loop
      vertex 64.3 64.3 8
      vertex 62.3 62.3 8
      vertex 64.3 -64.3 8
    endloop
  endfacet
  facet normal 0 0 1
    outer loop
      vertex 64.3 64.3 8
      vertex -62.3 62.3 8
      vertex 62.3 62.3 8
    endloop
  endfacet
  facet normal 0 0 1
    outer loop
      vertex -62.3 62.3 8
      vertex -64.3 64.3 8
      vertex -62.3 -62.3 8
    endloop
  endfacet
  facet normal -0 0 1
    outer loop
      vertex -64.3 64.3 8
      vertex -62.3 62.3 8
      vertex 64.3 64.3 8
    endloop
  endfacet
  facet normal -0 0 1
    outer loop
      vertex 62.3 -62.3 8
      vertex 64.3 -64.3 8
      vertex 62.3 62.3 8
    endloop
  endfacet
  facet normal -0 0 1
    outer loop
      vertex -62.3 -62.3 8
      vertex 64.3 -64.3 8
      vertex 62.3 -62.3 8
    endloop
  endfacet
  facet normal 0 0 1
    outer loop
      vertex -62.3 -62.3 8
      vertex -64.3 -64.3 8
      vertex 64.3 -64.3 8
    endloop
  endfacet
  facet normal 0 0 1
    outer loop
      vertex -64.3 -64.3 8
      vertex -62.3 -62.3 8
      vertex -64.3 64.3 8
    endloop
  endfacet
  facet normal 0 0 -1
    outer loop
      vertex -64.3 -64.3 0
      vertex 64.3 64.3 0
      vertex 64.3 -64.3 0
    endloop
  endfacet
  facet normal -0 0 -1
    outer loop
      vertex 64.3 64.3 0
      vertex -64.3 -64.3 0
      vertex -64.3 64.3 0
    endloop
  endfacet
  facet normal -1 0 0
    outer loop
      vertex -64.3 -64.3 0
      vertex -64.3 64.3 8
      vertex -64.3 64.3 0
    endloop
  endfacet
  facet normal -1 -0 0
    outer loop
      vertex -64.3 64.3 8
      vertex -64.3 -64.3 0
      vertex -64.3 -64.3 8
    endloop
  endfacet
  facet normal 0 1 -0
    outer loop
      vertex 64.3 64.3 0
      vertex -64.3 64.3 8
      vertex 64.3 64.3 8
    endloop
  endfacet
  facet normal 0 1 0
    outer loop
      vertex -64.3 64.3 8
      vertex 64.3 64.3 0
      vertex -64.3 64.3 0
    endloop
  endfacet
  facet normal 0 -1 0
    outer loop
      vertex -64.3 -64.3 0
      vertex 64.3 -64.3 8
      vertex -64.3 -64.3 8
    endloop
  endfacet
  facet normal 0 -1 -0
    outer loop
      vertex 64.3 -64.3 8
      vertex -64.3 -64.3 0
      vertex 64.3 -64.3 0
    endloop
  endfacet
  facet normal -1 0 0
    outer loop
      vertex 62.3 -62.3 2
      vertex 62.3 62.3 8
      vertex 62.3 62.3 2
    endloop
  endfacet
  facet normal -1 -0 0
    outer loop
      vertex 62.3 62.3 8
      vertex 62.3 -62.3 2
      vertex 62.3 -62.3 8
    endloop
  endfacet
  facet normal -0 0 1
    outer loop
      vertex -62.3 62.3 2
      vertex 62.3 -62.3 2
      vertex 62.3 62.3 2
    endloop
  endfacet
  facet normal 0 0 1
    outer loop
      vertex 62.3 -62.3 2
      vertex -62.3 62.3 2
      vertex -62.3 -62.3 2
    endloop
  endfacet
  facet normal 1 -0 0
    outer loop
      vertex -62.3 -62.3 8
      vertex -62.3 62.3 2
      vertex -62.3 62.3 8
    endloop
  endfacet
  facet normal 1 0 0
    outer loop
      vertex -62.3 62.3 2
      vertex -62.3 -62.3 8
      vertex -62.3 -62.3 2
    endloop
  endfacet
  facet normal 0 -1 0
    outer loop
      vertex -62.3 62.3 2
      vertex 62.3 62.3 8
      vertex -62.3 62.3 8
    endloop
  endfacet
  facet normal 0 -1 -0
    outer loop
      vertex 62.3 62.3 8
      vertex -62.3 62.3 2
      vertex 62.3 62.3 2
    endloop
  endfacet
  facet normal 0 1 -0
    outer loop
      vertex 62.3 -62.3 2
      vertex -62.3 -62.3 8
      vertex 62.3 -62.3 8
    endloop
  endfacet
  facet normal 0 1 0
    outer loop
      vertex -62.3 -62.3 8
      vertex 62.3 -62.3 2
      vertex -62.3 -62.3 2
    endloop
  endfacet
endsolid OpenSCAD_Model
